<?xml version="1.0" encoding="UTF-8" standalone="no"?>
<!DOCTYPE svg PUBLIC "-//W3C//DTD SVG 1.1//EN"
 "http://www.w3.org/Graphics/SVG/1.1/DTD/svg11.dtd">
<!-- Generated by graphviz version 5.0.0 (20220707.1540)
 -->
<!-- Title: dependencies Pages: 1 -->
<svg width="586pt" height="247pt"
 viewBox="0.00 0.00 586.00 246.80" xmlns="http://www.w3.org/2000/svg" xmlns:xlink="http://www.w3.org/1999/xlink">
<g id="graph0" class="graph" transform="scale(1 1) rotate(0) translate(4 242.8)">
<title>dependencies</title>
<polygon fill="white" stroke="transparent" points="-4,4 -4,-242.8 582,-242.8 582,4 -4,4"/>
<text text-anchor="middle" x="289" y="-8.2" font-family="sans-serif" font-size="14.00">dependencies</text>
<g id="clust1" class="cluster">
<title>cluster_AboutModule</title>
<polygon fill="none" stroke="black" stroke-dasharray="1,5" points="8,-32.8 8,-230.8 570,-230.8 570,-32.8 8,-32.8"/>
</g>
<g id="clust5" class="cluster">
<title>cluster_AboutModule_exports</title>
<polygon fill="none" stroke="black" points="218,-170.8 218,-222.8 354,-222.8 354,-170.8 218,-170.8"/>
</g>
<g id="clust2" class="cluster">
<title>cluster_AboutModule_declarations</title>
<polygon fill="none" stroke="black" points="430,-40.8 430,-92.8 562,-92.8 562,-40.8 430,-40.8"/>
</g>
<g id="clust4" class="cluster">
<title>cluster_AboutModule_imports</title>
<polygon fill="none" stroke="black" points="16,-40.8 16,-92.8 422,-92.8 422,-40.8 16,-40.8"/>
</g>
<!-- AboutComponent -->
<g id="node1" class="node">
<title>AboutComponent</title>
<polygon fill="#ffffb3" stroke="black" points="554.33,-84.8 437.67,-84.8 437.67,-48.8 554.33,-48.8 554.33,-84.8"/>
<text text-anchor="middle" x="496" y="-62.6" font-family="Times,serif" font-size="14.00">AboutComponent</text>
</g>
<!-- AboutModule -->
<g id="node2" class="node">
<title>AboutModule</title>
<polygon fill="#8dd3c7" stroke="black" points="333.05,-149.8 330.05,-153.8 309.05,-153.8 306.05,-149.8 238.95,-149.8 238.95,-113.8 333.05,-113.8 333.05,-149.8"/>
<text text-anchor="middle" x="286" y="-127.6" font-family="Times,serif" font-size="14.00">AboutModule</text>
</g>
<!-- AboutComponent&#45;&gt;AboutModule -->
<g id="edge1" class="edge">
<title>AboutComponent&#45;&gt;AboutModule</title>
<path fill="none" stroke="black" d="M496,-84.91C496,-104.14 496,-131.8 496,-131.8 496,-131.8 343.13,-131.8 343.13,-131.8"/>
<polygon fill="black" stroke="black" points="343.13,-128.3 333.13,-131.8 343.13,-135.3 343.13,-128.3"/>
</g>
<!-- AboutComponent  -->
<g id="node6" class="node">
<title>AboutComponent </title>
<polygon fill="#fb8072" stroke="black" points="345.83,-214.8 226.17,-214.8 226.17,-178.8 345.83,-178.8 345.83,-214.8"/>
<text text-anchor="middle" x="286" y="-192.6" font-family="Times,serif" font-size="14.00">AboutComponent </text>
</g>
<!-- AboutModule&#45;&gt;AboutComponent  -->
<g id="edge5" class="edge">
<title>AboutModule&#45;&gt;AboutComponent </title>
<path fill="none" stroke="black" stroke-dasharray="5,2" d="M286,-149.91C286,-149.91 286,-168.79 286,-168.79"/>
<polygon fill="black" stroke="black" points="282.5,-168.79 286,-178.79 289.5,-168.79 282.5,-168.79"/>
</g>
<!-- CommonModule -->
<g id="node3" class="node">
<title>CommonModule</title>
<polygon fill="#8dd3c7" stroke="black" points="413.67,-84.8 410.67,-88.8 389.67,-88.8 386.67,-84.8 302.33,-84.8 302.33,-48.8 413.67,-48.8 413.67,-84.8"/>
<text text-anchor="middle" x="358" y="-62.6" font-family="Times,serif" font-size="14.00">CommonModule</text>
</g>
<!-- CommonModule&#45;&gt;AboutModule -->
<g id="edge2" class="edge">
<title>CommonModule&#45;&gt;AboutModule</title>
<path fill="none" stroke="black" d="M317.72,-84.91C317.72,-84.91 317.72,-103.79 317.72,-103.79"/>
<polygon fill="black" stroke="black" points="314.22,-103.79 317.72,-113.79 321.22,-103.79 314.22,-103.79"/>
</g>
<!-- AboutRoutingModule -->
<g id="node4" class="node">
<title>AboutRoutingModule</title>
<polygon fill="#8dd3c7" stroke="black" points="283.67,-84.8 280.67,-88.8 259.67,-88.8 256.67,-84.8 144.33,-84.8 144.33,-48.8 283.67,-48.8 283.67,-84.8"/>
<text text-anchor="middle" x="214" y="-62.6" font-family="Times,serif" font-size="14.00">AboutRoutingModule</text>
</g>
<!-- AboutRoutingModule&#45;&gt;AboutModule -->
<g id="edge3" class="edge">
<title>AboutRoutingModule&#45;&gt;AboutModule</title>
<path fill="none" stroke="black" d="M261.28,-84.91C261.28,-84.91 261.28,-103.79 261.28,-103.79"/>
<polygon fill="black" stroke="black" points="257.78,-103.79 261.28,-113.79 264.78,-103.79 257.78,-103.79"/>
</g>
<!-- SidebarModule -->
<g id="node5" class="node">
<title>SidebarModule</title>
<polygon fill="#8dd3c7" stroke="black" points="126.32,-84.8 123.32,-88.8 102.32,-88.8 99.32,-84.8 23.68,-84.8 23.68,-48.8 126.32,-48.8 126.32,-84.8"/>
<text text-anchor="middle" x="75" y="-62.6" font-family="Times,serif" font-size="14.00">SidebarModule</text>
</g>
<!-- SidebarModule&#45;&gt;AboutModule -->
<g id="edge4" class="edge">
<title>SidebarModule&#45;&gt;AboutModule</title>
<path fill="none" stroke="black" d="M75,-84.91C75,-104.14 75,-131.8 75,-131.8 75,-131.8 228.91,-131.8 228.91,-131.8"/>
<polygon fill="black" stroke="black" points="228.91,-135.3 238.91,-131.8 228.91,-128.3 228.91,-135.3"/>
</g>
</g>
</svg>
