<?xml version="1.0" encoding="UTF-8" standalone="no"?>
<!DOCTYPE svg PUBLIC "-//W3C//DTD SVG 1.1//EN"
 "http://www.w3.org/Graphics/SVG/1.1/DTD/svg11.dtd">
<!-- Generated by graphviz version 5.0.0 (20220707.1540)
 -->
<!-- Title: dependencies Pages: 1 -->
<svg width="3018pt" height="405pt"
 viewBox="0.00 0.00 3018.00 404.80" xmlns="http://www.w3.org/2000/svg" xmlns:xlink="http://www.w3.org/1999/xlink">
<g id="graph0" class="graph" transform="scale(1 1) rotate(0) translate(4 400.8)">
<title>dependencies</title>
<polygon fill="white" stroke="transparent" points="-4,4 -4,-400.8 3014,-400.8 3014,4 -4,4"/>
<text text-anchor="middle" x="1505" y="-8.2" font-family="sans-serif" font-size="14.00">dependencies</text>
<g id="clust1" class="cluster">
<title>cluster_AboutModule</title>
<polygon fill="none" stroke="black" stroke-dasharray="1,5" points="8,-32.8 8,-320.8 450,-320.8 450,-32.8 8,-32.8"/>
</g>
<g id="clust2" class="cluster">
<title>cluster_AboutModule_declarations</title>
<polygon fill="none" stroke="black" points="16,-116.8 16,-168.8 148,-168.8 148,-116.8 16,-116.8"/>
</g>
<g id="clust4" class="cluster">
<title>cluster_AboutModule_imports</title>
<polygon fill="none" stroke="black" points="156,-40.8 156,-168.8 442,-168.8 442,-40.8 156,-40.8"/>
</g>
<g id="clust5" class="cluster">
<title>cluster_AboutModule_exports</title>
<polygon fill="none" stroke="black" points="198,-260.8 198,-312.8 334,-312.8 334,-260.8 198,-260.8"/>
</g>
<g id="clust8" class="cluster">
<title>cluster_AboutRoutingModule</title>
<polygon fill="none" stroke="black" stroke-dasharray="1,5" points="1674,-32.8 1674,-100.8 2014,-100.8 2014,-32.8 1674,-32.8"/>
</g>
<g id="clust10" class="cluster">
<title>cluster_AboutRoutingModule_imports</title>
<polygon fill="none" stroke="black" points="1808,-40.8 1808,-92.8 2006,-92.8 2006,-40.8 1808,-40.8"/>
</g>
<g id="clust11" class="cluster">
<title>cluster_AboutRoutingModule_exports</title>
<polygon fill="none" stroke="black" points="1682,-40.8 1682,-92.8 1800,-92.8 1800,-40.8 1682,-40.8"/>
</g>
<g id="clust14" class="cluster">
<title>cluster_AppModule</title>
<polygon fill="none" stroke="black" stroke-dasharray="1,5" points="774,-184.8 774,-388.8 1338,-388.8 1338,-184.8 774,-184.8"/>
</g>
<g id="clust15" class="cluster">
<title>cluster_AppModule_declarations</title>
<polygon fill="none" stroke="black" points="1208,-192.8 1208,-244.8 1330,-244.8 1330,-192.8 1208,-192.8"/>
</g>
<g id="clust17" class="cluster">
<title>cluster_AppModule_imports</title>
<polygon fill="none" stroke="black" points="782,-192.8 782,-244.8 1200,-244.8 1200,-192.8 782,-192.8"/>
</g>
<g id="clust19" class="cluster">
<title>cluster_AppModule_bootstrap</title>
<polygon fill="none" stroke="black" points="1009,-328.8 1009,-380.8 1133,-380.8 1133,-328.8 1009,-328.8"/>
</g>
<g id="clust21" class="cluster">
<title>cluster_ComponentsModule</title>
<polygon fill="none" stroke="black" stroke-dasharray="1,5" points="578,-108.8 578,-176.8 1126,-176.8 1126,-108.8 578,-108.8"/>
</g>
<g id="clust22" class="cluster">
<title>cluster_ComponentsModule_declarations</title>
<polygon fill="none" stroke="black" points="920,-116.8 920,-168.8 1118,-168.8 1118,-116.8 920,-116.8"/>
</g>
<g id="clust25" class="cluster">
<title>cluster_ComponentsModule_imports</title>
<polygon fill="none" stroke="black" points="798,-116.8 798,-168.8 912,-168.8 912,-116.8 798,-116.8"/>
</g>
<g id="clust26" class="cluster">
<title>cluster_ComponentsModule_exports</title>
<polygon fill="none" stroke="black" points="586,-116.8 586,-168.8 790,-168.8 790,-116.8 586,-116.8"/>
</g>
<g id="clust29" class="cluster">
<title>cluster_ContactModule</title>
<polygon fill="none" stroke="black" stroke-dasharray="1,5" points="1346,-108.8 1346,-320.8 1674,-320.8 1674,-108.8 1346,-108.8"/>
</g>
<g id="clust30" class="cluster">
<title>cluster_ContactModule_declarations</title>
<polygon fill="none" stroke="black" points="1526,-116.8 1526,-168.8 1666,-168.8 1666,-116.8 1526,-116.8"/>
</g>
<g id="clust32" class="cluster">
<title>cluster_ContactModule_imports</title>
<polygon fill="none" stroke="black" points="1354,-116.8 1354,-168.8 1518,-168.8 1518,-116.8 1354,-116.8"/>
</g>
<g id="clust33" class="cluster">
<title>cluster_ContactModule_exports</title>
<polygon fill="none" stroke="black" points="1359,-260.8 1359,-312.8 1503,-312.8 1503,-260.8 1359,-260.8"/>
</g>
<g id="clust42" class="cluster">
<title>cluster_CoursesModule</title>
<polygon fill="none" stroke="black" stroke-dasharray="1,5" points="2022,-32.8 2022,-252.8 2354,-252.8 2354,-32.8 2022,-32.8"/>
</g>
<g id="clust43" class="cluster">
<title>cluster_CoursesModule_declarations</title>
<polygon fill="none" stroke="black" points="2204,-40.8 2204,-92.8 2346,-92.8 2346,-40.8 2204,-40.8"/>
</g>
<g id="clust45" class="cluster">
<title>cluster_CoursesModule_imports</title>
<polygon fill="none" stroke="black" points="2030,-40.8 2030,-92.8 2196,-92.8 2196,-40.8 2030,-40.8"/>
</g>
<g id="clust46" class="cluster">
<title>cluster_CoursesModule_exports</title>
<polygon fill="none" stroke="black" points="2040,-192.8 2040,-244.8 2186,-244.8 2186,-192.8 2040,-192.8"/>
</g>
<g id="clust55" class="cluster">
<title>cluster_HomeModule</title>
<polygon fill="none" stroke="black" stroke-dasharray="1,5" points="1704,-108.8 1704,-320.8 2014,-320.8 2014,-108.8 1704,-108.8"/>
</g>
<g id="clust56" class="cluster">
<title>cluster_HomeModule_declarations</title>
<polygon fill="none" stroke="black" points="1874,-116.8 1874,-168.8 2006,-168.8 2006,-116.8 1874,-116.8"/>
</g>
<g id="clust58" class="cluster">
<title>cluster_HomeModule_imports</title>
<polygon fill="none" stroke="black" points="1712,-116.8 1712,-168.8 1866,-168.8 1866,-116.8 1712,-116.8"/>
</g>
<g id="clust59" class="cluster">
<title>cluster_HomeModule_exports</title>
<polygon fill="none" stroke="black" points="1716,-260.8 1716,-312.8 1852,-312.8 1852,-260.8 1716,-260.8"/>
</g>
<g id="clust68" class="cluster">
<title>cluster_PortfolioModule</title>
<polygon fill="none" stroke="black" stroke-dasharray="1,5" points="2362,-32.8 2362,-252.8 2704,-252.8 2704,-32.8 2362,-32.8"/>
</g>
<g id="clust69" class="cluster">
<title>cluster_PortfolioModule_declarations</title>
<polygon fill="none" stroke="black" points="2548,-40.8 2548,-92.8 2696,-92.8 2696,-40.8 2548,-40.8"/>
</g>
<g id="clust71" class="cluster">
<title>cluster_PortfolioModule_imports</title>
<polygon fill="none" stroke="black" points="2370,-40.8 2370,-92.8 2540,-92.8 2540,-40.8 2370,-40.8"/>
</g>
<g id="clust72" class="cluster">
<title>cluster_PortfolioModule_exports</title>
<polygon fill="none" stroke="black" points="2380,-192.8 2380,-244.8 2530,-244.8 2530,-192.8 2380,-192.8"/>
</g>
<g id="clust81" class="cluster">
<title>cluster_PostModule</title>
<polygon fill="none" stroke="black" stroke-dasharray="1,5" points="2712,-32.8 2712,-252.8 3002,-252.8 3002,-32.8 2712,-32.8"/>
</g>
<g id="clust82" class="cluster">
<title>cluster_PostModule_declarations</title>
<polygon fill="none" stroke="black" points="2872,-40.8 2872,-92.8 2994,-92.8 2994,-40.8 2872,-40.8"/>
</g>
<g id="clust84" class="cluster">
<title>cluster_PostModule_imports</title>
<polygon fill="none" stroke="black" points="2720,-40.8 2720,-92.8 2864,-92.8 2864,-40.8 2720,-40.8"/>
</g>
<g id="clust85" class="cluster">
<title>cluster_PostModule_exports</title>
<polygon fill="none" stroke="black" points="2730,-192.8 2730,-244.8 2854,-244.8 2854,-192.8 2730,-192.8"/>
</g>
<g id="clust94" class="cluster">
<title>cluster_SidebarModule</title>
<polygon fill="none" stroke="black" stroke-dasharray="1,5" points="458,-184.8 458,-252.8 766,-252.8 766,-184.8 458,-184.8"/>
</g>
<g id="clust95" class="cluster">
<title>cluster_SidebarModule_declarations</title>
<polygon fill="none" stroke="black" points="618,-192.8 618,-244.8 758,-244.8 758,-192.8 618,-192.8"/>
</g>
<g id="clust98" class="cluster">
<title>cluster_SidebarModule_exports</title>
<polygon fill="none" stroke="black" points="466,-192.8 466,-244.8 610,-244.8 610,-192.8 466,-192.8"/>
</g>
<!-- AboutComponent -->
<g id="node1" class="node">
<title>AboutComponent</title>
<polygon fill="#ffffb3" stroke="black" points="140.33,-160.8 23.67,-160.8 23.67,-124.8 140.33,-124.8 140.33,-160.8"/>
<text text-anchor="middle" x="82" y="-138.6" font-family="Times,serif" font-size="14.00">AboutComponent</text>
</g>
<!-- AboutModule -->
<g id="node2" class="node">
<title>AboutModule</title>
<polygon fill="#8dd3c7" stroke="black" points="313.05,-236.8 310.05,-240.8 289.05,-240.8 286.05,-236.8 218.95,-236.8 218.95,-200.8 313.05,-200.8 313.05,-236.8"/>
<text text-anchor="middle" x="266" y="-214.6" font-family="Times,serif" font-size="14.00">AboutModule</text>
</g>
<!-- AboutComponent&#45;&gt;AboutModule -->
<g id="edge1" class="edge">
<title>AboutComponent&#45;&gt;AboutModule</title>
<path fill="none" stroke="black" d="M140.39,-136.8C195.51,-136.8 269.79,-136.8 269.79,-136.8 269.79,-136.8 269.79,-190.6 269.79,-190.6"/>
<polygon fill="black" stroke="black" points="266.29,-190.6 269.79,-200.6 273.29,-190.6 266.29,-190.6"/>
</g>
<!-- AboutComponent  -->
<g id="node6" class="node">
<title>AboutComponent </title>
<polygon fill="#fb8072" stroke="black" points="325.83,-304.8 206.17,-304.8 206.17,-268.8 325.83,-268.8 325.83,-304.8"/>
<text text-anchor="middle" x="266" y="-282.6" font-family="Times,serif" font-size="14.00">AboutComponent </text>
</g>
<!-- AboutModule&#45;&gt;AboutComponent  -->
<g id="edge5" class="edge">
<title>AboutModule&#45;&gt;AboutComponent </title>
<path fill="none" stroke="black" stroke-dasharray="5,2" d="M266,-237.02C266,-237.02 266,-258.53 266,-258.53"/>
<polygon fill="black" stroke="black" points="262.5,-258.53 266,-268.53 269.5,-258.53 262.5,-258.53"/>
</g>
<!-- CommonModule -->
<g id="node3" class="node">
<title>CommonModule</title>
<polygon fill="#8dd3c7" stroke="black" points="433.67,-84.8 430.67,-88.8 409.67,-88.8 406.67,-84.8 322.33,-84.8 322.33,-48.8 433.67,-48.8 433.67,-84.8"/>
<text text-anchor="middle" x="378" y="-62.6" font-family="Times,serif" font-size="14.00">CommonModule</text>
</g>
<!-- CommonModule&#45;&gt;AboutModule -->
<g id="edge2" class="edge">
<title>CommonModule&#45;&gt;AboutModule</title>
<path fill="none" stroke="black" d="M322.04,-66.8C313.24,-66.8 306.98,-66.8 306.98,-66.8 306.98,-66.8 306.98,-190.77 306.98,-190.77"/>
<polygon fill="black" stroke="black" points="303.48,-190.77 306.98,-200.77 310.48,-190.77 303.48,-190.77"/>
</g>
<!-- SidebarModule -->
<g id="node5" class="node">
<title>SidebarModule</title>
<polygon fill="#8dd3c7" stroke="black" points="434.32,-160.8 431.32,-164.8 410.32,-164.8 407.32,-160.8 331.68,-160.8 331.68,-124.8 434.32,-124.8 434.32,-160.8"/>
<text text-anchor="middle" x="383" y="-138.6" font-family="Times,serif" font-size="14.00">SidebarModule</text>
</g>
<!-- CommonModule&#45;&gt;SidebarModule -->
<g id="edge53" class="edge">
<title>CommonModule&#45;&gt;SidebarModule</title>
<path fill="none" stroke="black" d="M352.24,-84.81C352.24,-84.81 352.24,-114.65 352.24,-114.65"/>
<polygon fill="black" stroke="black" points="348.74,-114.65 352.24,-124.65 355.74,-114.65 348.74,-114.65"/>
</g>
<!-- ComponentsModule -->
<g id="node13" class="node">
<title>ComponentsModule</title>
<polygon fill="#8dd3c7" stroke="black" points="920.33,-236.8 917.33,-240.8 896.33,-240.8 893.33,-236.8 789.67,-236.8 789.67,-200.8 920.33,-200.8 920.33,-236.8"/>
<text text-anchor="middle" x="855" y="-214.6" font-family="Times,serif" font-size="14.00">ComponentsModule</text>
</g>
<!-- CommonModule&#45;&gt;ComponentsModule -->
<g id="edge15" class="edge">
<title>CommonModule&#45;&gt;ComponentsModule</title>
<path fill="none" stroke="black" d="M433.99,-70.8C549.37,-70.8 802.9,-70.8 802.9,-70.8 802.9,-70.8 802.9,-190.65 802.9,-190.65"/>
<polygon fill="black" stroke="black" points="799.4,-190.65 802.9,-200.65 806.4,-190.65 799.4,-190.65"/>
</g>
<!-- ContactModule -->
<g id="node21" class="node">
<title>ContactModule</title>
<polygon fill="#8dd3c7" stroke="black" points="1482.6,-236.8 1479.6,-240.8 1458.6,-240.8 1455.6,-236.8 1379.4,-236.8 1379.4,-200.8 1482.6,-200.8 1482.6,-236.8"/>
<text text-anchor="middle" x="1431" y="-214.6" font-family="Times,serif" font-size="14.00">ContactModule</text>
</g>
<!-- CommonModule&#45;&gt;ContactModule -->
<g id="edge21" class="edge">
<title>CommonModule&#45;&gt;ContactModule</title>
<path fill="none" stroke="black" d="M433.98,-63.8C639.68,-63.8 1341.81,-63.8 1341.81,-63.8 1341.81,-63.8 1341.81,-218.8 1341.81,-218.8 1341.81,-218.8 1369.37,-218.8 1369.37,-218.8"/>
<polygon fill="black" stroke="black" points="1369.37,-222.3 1379.37,-218.8 1369.37,-215.3 1369.37,-222.3"/>
</g>
<!-- CoursesModule -->
<g id="node25" class="node">
<title>CoursesModule</title>
<polygon fill="#8dd3c7" stroke="black" points="2165.16,-160.8 2162.16,-164.8 2141.16,-164.8 2138.16,-160.8 2060.84,-160.8 2060.84,-124.8 2165.16,-124.8 2165.16,-160.8"/>
<text text-anchor="middle" x="2113" y="-138.6" font-family="Times,serif" font-size="14.00">CoursesModule</text>
</g>
<!-- CommonModule&#45;&gt;CoursesModule -->
<g id="edge28" class="edge">
<title>CommonModule&#45;&gt;CoursesModule</title>
<path fill="none" stroke="black" d="M372.64,-84.81C372.64,-100.85 372.64,-121.8 372.64,-121.8 372.64,-121.8 2095.56,-121.8 2095.56,-121.8 2095.56,-121.8 2095.56,-122.09 2095.56,-122.09"/>
<polygon fill="black" stroke="black" points="2092.06,-114.72 2095.56,-124.72 2099.06,-114.72 2092.06,-114.72"/>
</g>
<!-- HomeModule -->
<g id="node29" class="node">
<title>HomeModule</title>
<polygon fill="#8dd3c7" stroke="black" points="1830.77,-236.8 1827.77,-240.8 1806.77,-240.8 1803.77,-236.8 1737.23,-236.8 1737.23,-200.8 1830.77,-200.8 1830.77,-236.8"/>
<text text-anchor="middle" x="1784" y="-214.6" font-family="Times,serif" font-size="14.00">HomeModule</text>
</g>
<!-- CommonModule&#45;&gt;HomeModule -->
<g id="edge34" class="edge">
<title>CommonModule&#45;&gt;HomeModule</title>
<path fill="none" stroke="black" d="M433.94,-56.8C663.59,-56.8 1521.83,-56.8 1521.83,-56.8 1521.83,-56.8 1521.83,-212.8 1521.83,-212.8 1521.83,-212.8 1727.13,-212.8 1727.13,-212.8"/>
<polygon fill="black" stroke="black" points="1727.13,-216.3 1737.13,-212.8 1727.13,-209.3 1727.13,-216.3"/>
</g>
<!-- PortfolioModule -->
<g id="node33" class="node">
<title>PortfolioModule</title>
<polygon fill="#8dd3c7" stroke="black" points="2509.83,-160.8 2506.83,-164.8 2485.83,-164.8 2482.83,-160.8 2400.17,-160.8 2400.17,-124.8 2509.83,-124.8 2509.83,-160.8"/>
<text text-anchor="middle" x="2455" y="-138.6" font-family="Times,serif" font-size="14.00">PortfolioModule</text>
</g>
<!-- CommonModule&#45;&gt;PortfolioModule -->
<g id="edge41" class="edge">
<title>CommonModule&#45;&gt;PortfolioModule</title>
<path fill="none" stroke="black" d="M393.04,-84.99C393.04,-99.98 393.04,-118.8 393.04,-118.8 393.04,-118.8 2436.78,-118.8 2436.78,-118.8 2436.78,-118.8 2436.78,-119.38 2436.78,-119.38"/>
<polygon fill="black" stroke="black" points="2433.28,-114.61 2436.78,-124.61 2440.28,-114.61 2433.28,-114.61"/>
</g>
<!-- PostModule -->
<g id="node37" class="node">
<title>PostModule</title>
<polygon fill="#8dd3c7" stroke="black" points="2833.68,-160.8 2830.68,-164.8 2809.68,-164.8 2806.68,-160.8 2750.32,-160.8 2750.32,-124.8 2833.68,-124.8 2833.68,-160.8"/>
<text text-anchor="middle" x="2792" y="-138.6" font-family="Times,serif" font-size="14.00">PostModule</text>
</g>
<!-- CommonModule&#45;&gt;PostModule -->
<g id="edge47" class="edge">
<title>CommonModule&#45;&gt;PostModule</title>
<path fill="none" stroke="black" d="M413.44,-84.95C413.44,-98.54 413.44,-114.8 413.44,-114.8 413.44,-114.8 2778.05,-114.8 2778.05,-114.8 2778.05,-114.8 2778.05,-115.78 2778.05,-115.78"/>
<polygon fill="black" stroke="black" points="2774.55,-114.59 2778.05,-124.59 2781.55,-114.59 2774.55,-114.59"/>
</g>
<!-- AboutRoutingModule -->
<g id="node4" class="node">
<title>AboutRoutingModule</title>
<polygon fill="#8dd3c7" stroke="black" points="303.67,-84.8 300.67,-88.8 279.67,-88.8 276.67,-84.8 164.33,-84.8 164.33,-48.8 303.67,-48.8 303.67,-84.8"/>
<text text-anchor="middle" x="234" y="-62.6" font-family="Times,serif" font-size="14.00">AboutRoutingModule</text>
</g>
<!-- AboutRoutingModule&#45;&gt;AboutModule -->
<g id="edge3" class="edge">
<title>AboutRoutingModule&#45;&gt;AboutModule</title>
<path fill="none" stroke="black" d="M286.81,-84.83C286.81,-84.83 286.81,-190.79 286.81,-190.79"/>
<polygon fill="black" stroke="black" points="283.31,-190.79 286.81,-200.79 290.31,-190.79 283.31,-190.79"/>
</g>
<!-- RouterModule  -->
<g id="node8" class="node">
<title>RouterModule </title>
<polygon fill="#fb8072" stroke="black" points="1791.66,-84.8 1690.34,-84.8 1690.34,-48.8 1791.66,-48.8 1791.66,-84.8"/>
<text text-anchor="middle" x="1741" y="-62.6" font-family="Times,serif" font-size="14.00">RouterModule </text>
</g>
<!-- AboutRoutingModule&#45;&gt;RouterModule  -->
<g id="edge7" class="edge">
<title>AboutRoutingModule&#45;&gt;RouterModule </title>
<path fill="none" stroke="black" stroke-dasharray="5,2" d="M252.77,-84.97C252.77,-87.25 252.77,-88.8 252.77,-88.8 252.77,-88.8 1704.99,-88.8 1704.99,-88.8 1704.99,-88.8 1704.99,-88.42 1704.99,-88.42"/>
<polygon fill="black" stroke="black" points="1708.49,-94.97 1704.99,-84.97 1701.49,-94.97 1708.49,-94.97"/>
</g>
<!-- SidebarModule&#45;&gt;AboutModule -->
<g id="edge4" class="edge">
<title>SidebarModule&#45;&gt;AboutModule</title>
<path fill="none" stroke="black" d="M331.6,-148.8C319.54,-148.8 310.13,-148.8 310.13,-148.8 310.13,-148.8 310.13,-190.77 310.13,-190.77"/>
<polygon fill="black" stroke="black" points="306.63,-190.77 310.13,-200.77 313.63,-190.77 306.63,-190.77"/>
</g>
<!-- SidebarModule&#45;&gt;ComponentsModule -->
<g id="edge17" class="edge">
<title>SidebarModule&#45;&gt;ComponentsModule</title>
<path fill="none" stroke="black" d="M348.89,-160.9C348.89,-171.89 348.89,-183.8 348.89,-183.8 348.89,-183.8 793.1,-183.8 793.1,-183.8 793.1,-183.8 793.1,-190.48 793.1,-190.48"/>
<polygon fill="black" stroke="black" points="789.6,-190.48 793.1,-200.48 796.6,-190.48 789.6,-190.48"/>
</g>
<!-- SidebarModule&#45;&gt;ContactModule -->
<g id="edge23" class="edge">
<title>SidebarModule&#45;&gt;ContactModule</title>
<path fill="none" stroke="black" d="M365.95,-160.94C365.95,-167.26 365.95,-172.8 365.95,-172.8 365.95,-172.8 1413.82,-172.8 1413.82,-172.8 1413.82,-172.8 1413.82,-190.62 1413.82,-190.62"/>
<polygon fill="black" stroke="black" points="1410.32,-190.62 1413.82,-200.62 1417.32,-190.62 1410.32,-190.62"/>
</g>
<!-- SidebarModule&#45;&gt;HomeModule -->
<g id="edge36" class="edge">
<title>SidebarModule&#45;&gt;HomeModule</title>
<path fill="none" stroke="black" d="M383,-160.99C383,-164.34 383,-166.8 383,-166.8 383,-166.8 1768.37,-166.8 1768.37,-166.8 1768.37,-166.8 1768.37,-190.61 1768.37,-190.61"/>
<polygon fill="black" stroke="black" points="1764.87,-190.61 1768.37,-200.61 1771.87,-190.61 1764.87,-190.61"/>
</g>
<!-- SidebarComponent  -->
<g id="node41" class="node">
<title>SidebarComponent </title>
<polygon fill="#fb8072" stroke="black" points="601.6,-236.8 474.4,-236.8 474.4,-200.8 601.6,-200.8 601.6,-236.8"/>
<text text-anchor="middle" x="538" y="-214.6" font-family="Times,serif" font-size="14.00">SidebarComponent </text>
</g>
<!-- SidebarModule&#45;&gt;SidebarComponent  -->
<g id="edge54" class="edge">
<title>SidebarModule&#45;&gt;SidebarComponent </title>
<path fill="none" stroke="black" stroke-dasharray="5,2" d="M417.11,-160.81C417.11,-183.29 417.11,-218.8 417.11,-218.8 417.11,-218.8 464.37,-218.8 464.37,-218.8"/>
<polygon fill="black" stroke="black" points="464.37,-222.3 474.37,-218.8 464.37,-215.3 464.37,-222.3"/>
</g>
<!-- RouterModule.forChild(args) -->
<g id="node7" class="node">
<title>RouterModule.forChild(args)</title>
<polygon fill="#8dd3c7" stroke="black" points="1997.75,-84.8 1994.75,-88.8 1973.75,-88.8 1970.75,-84.8 1816.25,-84.8 1816.25,-48.8 1997.75,-48.8 1997.75,-84.8"/>
<text text-anchor="middle" x="1907" y="-62.6" font-family="Times,serif" font-size="14.00">RouterModule.forChild(args)</text>
</g>
<!-- RouterModule.forChild(args)&#45;&gt;AboutRoutingModule -->
<g id="edge6" class="edge">
<title>RouterModule.forChild(args)&#45;&gt;AboutRoutingModule</title>
<path fill="none" stroke="black" d="M1826.89,-84.97C1826.89,-88.85 1826.89,-91.8 1826.89,-91.8 1826.89,-91.8 235.75,-91.8 235.75,-91.8 235.75,-91.8 235.75,-91.12 235.75,-91.12"/>
<polygon fill="black" stroke="black" points="239.25,-94.97 235.75,-84.97 232.25,-94.97 239.25,-94.97"/>
</g>
<!-- ContactRoutingModule -->
<g id="node22" class="node">
<title>ContactRoutingModule</title>
<polygon fill="#8dd3c7" stroke="black" points="1510.21,-160.8 1507.21,-164.8 1486.21,-164.8 1483.21,-160.8 1361.79,-160.8 1361.79,-124.8 1510.21,-124.8 1510.21,-160.8"/>
<text text-anchor="middle" x="1436" y="-138.6" font-family="Times,serif" font-size="14.00">ContactRoutingModule</text>
</g>
<!-- RouterModule.forChild(args)&#45;&gt;ContactRoutingModule -->
<g id="edge25" class="edge">
<title>RouterModule.forChild(args)&#45;&gt;ContactRoutingModule</title>
<path fill="none" stroke="black" d="M1837.41,-85.12C1837.41,-93.59 1837.41,-101.8 1837.41,-101.8 1837.41,-101.8 1460.7,-101.8 1460.7,-101.8 1460.7,-101.8 1460.7,-114.7 1460.7,-114.7"/>
<polygon fill="black" stroke="black" points="1457.2,-114.7 1460.7,-124.7 1464.2,-114.7 1457.2,-114.7"/>
</g>
<!-- CoursesRoutingModule -->
<g id="node26" class="node">
<title>CoursesRoutingModule</title>
<polygon fill="#8dd3c7" stroke="black" points="2187.78,-84.8 2184.78,-88.8 2163.78,-88.8 2160.78,-84.8 2038.22,-84.8 2038.22,-48.8 2187.78,-48.8 2187.78,-84.8"/>
<text text-anchor="middle" x="2113" y="-62.6" font-family="Times,serif" font-size="14.00">CoursesRoutingModule</text>
</g>
<!-- RouterModule.forChild(args)&#45;&gt;CoursesRoutingModule -->
<g id="edge31" class="edge">
<title>RouterModule.forChild(args)&#45;&gt;CoursesRoutingModule</title>
<path fill="none" stroke="black" d="M1997.65,-66.8C1997.65,-66.8 2028.05,-66.8 2028.05,-66.8"/>
<polygon fill="black" stroke="black" points="2028.05,-70.3 2038.05,-66.8 2028.05,-63.3 2028.05,-70.3"/>
</g>
<!-- HomeRoutingModule -->
<g id="node30" class="node">
<title>HomeRoutingModule</title>
<polygon fill="#8dd3c7" stroke="black" points="1858.38,-160.8 1855.38,-164.8 1834.38,-164.8 1831.38,-160.8 1719.62,-160.8 1719.62,-124.8 1858.38,-124.8 1858.38,-160.8"/>
<text text-anchor="middle" x="1789" y="-138.6" font-family="Times,serif" font-size="14.00">HomeRoutingModule</text>
</g>
<!-- RouterModule.forChild(args)&#45;&gt;HomeRoutingModule -->
<g id="edge38" class="edge">
<title>RouterModule.forChild(args)&#45;&gt;HomeRoutingModule</title>
<path fill="none" stroke="black" d="M1847.93,-84.81C1847.93,-84.81 1847.93,-114.65 1847.93,-114.65"/>
<polygon fill="black" stroke="black" points="1844.43,-114.65 1847.93,-124.65 1851.43,-114.65 1844.43,-114.65"/>
</g>
<!-- PortfolioRoutingModule -->
<g id="node34" class="node">
<title>PortfolioRoutingModule</title>
<polygon fill="#8dd3c7" stroke="black" points="2532.45,-84.8 2529.45,-88.8 2508.45,-88.8 2505.45,-84.8 2377.55,-84.8 2377.55,-48.8 2532.45,-48.8 2532.45,-84.8"/>
<text text-anchor="middle" x="2455" y="-62.6" font-family="Times,serif" font-size="14.00">PortfolioRoutingModule</text>
</g>
<!-- RouterModule.forChild(args)&#45;&gt;PortfolioRoutingModule -->
<g id="edge44" class="edge">
<title>RouterModule.forChild(args)&#45;&gt;PortfolioRoutingModule</title>
<path fill="none" stroke="black" d="M1959.16,-85.01C1959.16,-90.35 1959.16,-94.8 1959.16,-94.8 1959.16,-94.8 2384.39,-94.8 2384.39,-94.8 2384.39,-94.8 2384.39,-93.82 2384.39,-93.82"/>
<polygon fill="black" stroke="black" points="2387.89,-95.01 2384.39,-85.01 2380.89,-95.01 2387.89,-95.01"/>
</g>
<!-- PostRoutingModule -->
<g id="node38" class="node">
<title>PostRoutingModule</title>
<polygon fill="#8dd3c7" stroke="black" points="2856.29,-84.8 2853.29,-88.8 2832.29,-88.8 2829.29,-84.8 2727.71,-84.8 2727.71,-48.8 2856.29,-48.8 2856.29,-84.8"/>
<text text-anchor="middle" x="2792" y="-62.6" font-family="Times,serif" font-size="14.00">PostRoutingModule</text>
</g>
<!-- RouterModule.forChild(args)&#45;&gt;PostRoutingModule -->
<g id="edge50" class="edge">
<title>RouterModule.forChild(args)&#45;&gt;PostRoutingModule</title>
<path fill="none" stroke="black" d="M1920.69,-85.04C1920.69,-92.23 1920.69,-98.8 1920.69,-98.8 1920.69,-98.8 2734.22,-98.8 2734.22,-98.8 2734.22,-98.8 2734.22,-95.04 2734.22,-95.04"/>
<polygon fill="black" stroke="black" points="2737.72,-95.04 2734.22,-85.04 2730.72,-95.04 2737.72,-95.04"/>
</g>
<!-- AppComponent -->
<g id="node9" class="node">
<title>AppComponent</title>
<polygon fill="#ffffb3" stroke="black" points="1321.94,-236.8 1216.06,-236.8 1216.06,-200.8 1321.94,-200.8 1321.94,-236.8"/>
<text text-anchor="middle" x="1269" y="-214.6" font-family="Times,serif" font-size="14.00">AppComponent</text>
</g>
<!-- AppModule -->
<g id="node10" class="node">
<title>AppModule</title>
<polygon fill="#8dd3c7" stroke="black" points="1112.66,-304.8 1109.66,-308.8 1088.66,-308.8 1085.66,-304.8 1029.34,-304.8 1029.34,-268.8 1112.66,-268.8 1112.66,-304.8"/>
<text text-anchor="middle" x="1071" y="-282.6" font-family="Times,serif" font-size="14.00">AppModule</text>
</g>
<!-- AppComponent&#45;&gt;AppModule -->
<g id="edge8" class="edge">
<title>AppComponent&#45;&gt;AppModule</title>
<path fill="none" stroke="black" d="M1269,-237.02C1269,-257.17 1269,-286.8 1269,-286.8 1269,-286.8 1122.99,-286.8 1122.99,-286.8"/>
<polygon fill="black" stroke="black" points="1122.99,-283.3 1112.99,-286.8 1122.99,-290.3 1122.99,-283.3"/>
</g>
<!-- AppComponent  -->
<g id="node14" class="node">
<title>AppComponent </title>
<polygon fill="#80b1d3" stroke="black" points="1125.44,-372.8 1016.56,-372.8 1016.56,-336.8 1125.44,-336.8 1125.44,-372.8"/>
<text text-anchor="middle" x="1071" y="-350.6" font-family="Times,serif" font-size="14.00">AppComponent </text>
</g>
<!-- AppModule&#45;&gt;AppComponent  -->
<g id="edge12" class="edge">
<title>AppModule&#45;&gt;AppComponent </title>
<path fill="none" stroke="black" stroke-dasharray="1,5" d="M1071,-305.02C1071,-305.02 1071,-326.53 1071,-326.53"/>
<polygon fill="black" stroke="black" points="1067.5,-326.53 1071,-336.53 1074.5,-326.53 1067.5,-326.53"/>
</g>
<!-- BrowserModule -->
<g id="node11" class="node">
<title>BrowserModule</title>
<polygon fill="#8dd3c7" stroke="black" points="1192.49,-236.8 1189.49,-240.8 1168.49,-240.8 1165.49,-236.8 1085.51,-236.8 1085.51,-200.8 1192.49,-200.8 1192.49,-236.8"/>
<text text-anchor="middle" x="1139" y="-214.6" font-family="Times,serif" font-size="14.00">BrowserModule</text>
</g>
<!-- BrowserModule&#45;&gt;AppModule -->
<g id="edge9" class="edge">
<title>BrowserModule&#45;&gt;AppModule</title>
<path fill="none" stroke="black" d="M1099.17,-237.02C1099.17,-237.02 1099.17,-258.53 1099.17,-258.53"/>
<polygon fill="black" stroke="black" points="1095.67,-258.53 1099.17,-268.53 1102.67,-258.53 1095.67,-258.53"/>
</g>
<!-- AppRoutingModule -->
<g id="node12" class="node">
<title>AppRoutingModule</title>
<polygon fill="#8dd3c7" stroke="black" points="1067.28,-236.8 1064.28,-240.8 1043.28,-240.8 1040.28,-236.8 938.72,-236.8 938.72,-200.8 1067.28,-200.8 1067.28,-236.8"/>
<text text-anchor="middle" x="1003" y="-214.6" font-family="Times,serif" font-size="14.00">AppRoutingModule</text>
</g>
<!-- AppRoutingModule&#45;&gt;AppModule -->
<g id="edge10" class="edge">
<title>AppRoutingModule&#45;&gt;AppModule</title>
<path fill="none" stroke="black" d="M1048.28,-237.02C1048.28,-237.02 1048.28,-258.53 1048.28,-258.53"/>
<polygon fill="black" stroke="black" points="1044.78,-258.53 1048.28,-268.53 1051.78,-258.53 1044.78,-258.53"/>
</g>
<!-- ComponentsModule&#45;&gt;AppModule -->
<g id="edge11" class="edge">
<title>ComponentsModule&#45;&gt;AppModule</title>
<path fill="none" stroke="black" d="M855,-237.02C855,-257.17 855,-286.8 855,-286.8 855,-286.8 1019.1,-286.8 1019.1,-286.8"/>
<polygon fill="black" stroke="black" points="1019.1,-290.3 1029.1,-286.8 1019.1,-283.3 1019.1,-290.3"/>
</g>
<!-- COMPONENTS  -->
<g id="node18" class="node">
<title>COMPONENTS </title>
<polygon fill="#fb8072" stroke="black" points="782.4,-160.8 667.6,-160.8 667.6,-124.8 782.4,-124.8 782.4,-160.8"/>
<text text-anchor="middle" x="725" y="-138.6" font-family="Times,serif" font-size="14.00">COMPONENTS </text>
</g>
<!-- ComponentsModule&#45;&gt;COMPONENTS  -->
<g id="edge18" class="edge">
<title>ComponentsModule&#45;&gt;COMPONENTS </title>
<path fill="none" stroke="black" stroke-dasharray="5,2" d="M796.37,-200.79C796.37,-178.31 796.37,-142.8 796.37,-142.8 796.37,-142.8 792.27,-142.8 792.27,-142.8"/>
<polygon fill="black" stroke="black" points="792.27,-139.3 782.27,-142.8 792.27,-146.3 792.27,-139.3"/>
</g>
<!-- PIPES  -->
<g id="node19" class="node">
<title>PIPES </title>
<polygon fill="#fb8072" stroke="black" points="650.07,-160.8 593.93,-160.8 593.93,-124.8 650.07,-124.8 650.07,-160.8"/>
<text text-anchor="middle" x="622" y="-138.6" font-family="Times,serif" font-size="14.00">PIPES </text>
</g>
<!-- ComponentsModule&#45;&gt;PIPES  -->
<g id="edge19" class="edge">
<title>ComponentsModule&#45;&gt;PIPES </title>
<path fill="none" stroke="black" stroke-dasharray="5,2" d="M799.64,-200.67C799.64,-190.09 799.64,-178.8 799.64,-178.8 799.64,-178.8 642.01,-178.8 642.01,-178.8 642.01,-178.8 642.01,-171.22 642.01,-171.22"/>
<polygon fill="black" stroke="black" points="645.51,-171.22 642.01,-161.22 638.51,-171.22 645.51,-171.22"/>
</g>
<!-- COMPONENTS -->
<g id="node15" class="node">
<title>COMPONENTS</title>
<polygon fill="#ffffb3" stroke="black" points="1110.4,-160.8 999.6,-160.8 999.6,-124.8 1110.4,-124.8 1110.4,-160.8"/>
<text text-anchor="middle" x="1055" y="-138.6" font-family="Times,serif" font-size="14.00">COMPONENTS</text>
</g>
<!-- COMPONENTS&#45;&gt;ComponentsModule -->
<g id="edge13" class="edge">
<title>COMPONENTS&#45;&gt;ComponentsModule</title>
<path fill="none" stroke="black" d="M1033.47,-161.04C1033.47,-176.37 1033.47,-195.8 1033.47,-195.8 1033.47,-195.8 912,-195.8 912,-195.8 912,-195.8 912,-196.29 912,-196.29"/>
<polygon fill="black" stroke="black" points="908.5,-190.68 912,-200.68 915.5,-190.68 908.5,-190.68"/>
</g>
<!-- PIPES -->
<g id="node16" class="node">
<title>PIPES</title>
<polygon fill="#ffffb3" stroke="black" points="982,-160.8 928,-160.8 928,-124.8 982,-124.8 982,-160.8"/>
<text text-anchor="middle" x="955" y="-138.6" font-family="Times,serif" font-size="14.00">PIPES</text>
</g>
<!-- PIPES&#45;&gt;ComponentsModule -->
<g id="edge14" class="edge">
<title>PIPES&#45;&gt;ComponentsModule</title>
<path fill="none" stroke="black" d="M933.31,-160.81C933.31,-183.29 933.31,-218.8 933.31,-218.8 933.31,-218.8 930.37,-218.8 930.37,-218.8"/>
<polygon fill="black" stroke="black" points="930.37,-215.3 920.37,-218.8 930.37,-222.3 930.37,-215.3"/>
</g>
<!-- RouterModule -->
<g id="node17" class="node">
<title>RouterModule</title>
<polygon fill="#8dd3c7" stroke="black" points="903.66,-160.8 900.66,-164.8 879.66,-164.8 876.66,-160.8 806.34,-160.8 806.34,-124.8 903.66,-124.8 903.66,-160.8"/>
<text text-anchor="middle" x="855" y="-138.6" font-family="Times,serif" font-size="14.00">RouterModule</text>
</g>
<!-- RouterModule&#45;&gt;ComponentsModule -->
<g id="edge16" class="edge">
<title>RouterModule&#45;&gt;ComponentsModule</title>
<path fill="none" stroke="black" d="M855,-160.81C855,-160.81 855,-190.65 855,-190.65"/>
<polygon fill="black" stroke="black" points="851.5,-190.65 855,-200.65 858.5,-190.65 851.5,-190.65"/>
</g>
<!-- ContactComponent -->
<g id="node20" class="node">
<title>ContactComponent</title>
<polygon fill="#ffffb3" stroke="black" points="1658.38,-160.8 1533.62,-160.8 1533.62,-124.8 1658.38,-124.8 1658.38,-160.8"/>
<text text-anchor="middle" x="1596" y="-138.6" font-family="Times,serif" font-size="14.00">ContactComponent</text>
</g>
<!-- ContactComponent&#45;&gt;ContactModule -->
<g id="edge20" class="edge">
<title>ContactComponent&#45;&gt;ContactModule</title>
<path fill="none" stroke="black" d="M1596,-161C1596,-185.16 1596,-224.8 1596,-224.8 1596,-224.8 1492.75,-224.8 1492.75,-224.8"/>
<polygon fill="black" stroke="black" points="1492.75,-221.3 1482.75,-224.8 1492.75,-228.3 1492.75,-221.3"/>
</g>
<!-- ContactComponent  -->
<g id="node23" class="node">
<title>ContactComponent </title>
<polygon fill="#fb8072" stroke="black" points="1495.38,-304.8 1366.62,-304.8 1366.62,-268.8 1495.38,-268.8 1495.38,-304.8"/>
<text text-anchor="middle" x="1431" y="-282.6" font-family="Times,serif" font-size="14.00">ContactComponent </text>
</g>
<!-- ContactModule&#45;&gt;ContactComponent  -->
<g id="edge24" class="edge">
<title>ContactModule&#45;&gt;ContactComponent </title>
<path fill="none" stroke="black" stroke-dasharray="5,2" d="M1431,-237.02C1431,-237.02 1431,-258.53 1431,-258.53"/>
<polygon fill="black" stroke="black" points="1427.5,-258.53 1431,-268.53 1434.5,-258.53 1427.5,-258.53"/>
</g>
<!-- ContactRoutingModule&#45;&gt;RouterModule  -->
<g id="edge26" class="edge">
<title>ContactRoutingModule&#45;&gt;RouterModule </title>
<path fill="none" stroke="black" stroke-dasharray="5,2" d="M1411.3,-124.69C1411.3,-105.46 1411.3,-77.8 1411.3,-77.8 1411.3,-77.8 1680.21,-77.8 1680.21,-77.8"/>
<polygon fill="black" stroke="black" points="1680.21,-81.3 1690.21,-77.8 1680.21,-74.3 1680.21,-81.3"/>
</g>
<!-- ContactRoutingModule&#45;&gt;ContactModule -->
<g id="edge22" class="edge">
<title>ContactRoutingModule&#45;&gt;ContactModule</title>
<path fill="none" stroke="black" d="M1448.18,-160.81C1448.18,-160.81 1448.18,-190.65 1448.18,-190.65"/>
<polygon fill="black" stroke="black" points="1444.68,-190.65 1448.18,-200.65 1451.68,-190.65 1444.68,-190.65"/>
</g>
<!-- CoursesComponent -->
<g id="node24" class="node">
<title>CoursesComponent</title>
<polygon fill="#ffffb3" stroke="black" points="2338.44,-84.8 2211.56,-84.8 2211.56,-48.8 2338.44,-48.8 2338.44,-84.8"/>
<text text-anchor="middle" x="2275" y="-62.6" font-family="Times,serif" font-size="14.00">CoursesComponent</text>
</g>
<!-- CoursesComponent&#45;&gt;CoursesModule -->
<g id="edge27" class="edge">
<title>CoursesComponent&#45;&gt;CoursesModule</title>
<path fill="none" stroke="black" d="M2275,-84.81C2275,-107.29 2275,-142.8 2275,-142.8 2275,-142.8 2175.6,-142.8 2175.6,-142.8"/>
<polygon fill="black" stroke="black" points="2175.6,-139.3 2165.6,-142.8 2175.6,-146.3 2175.6,-139.3"/>
</g>
<!-- CoursesComponent  -->
<g id="node27" class="node">
<title>CoursesComponent </title>
<polygon fill="#fb8072" stroke="black" points="2177.94,-236.8 2048.06,-236.8 2048.06,-200.8 2177.94,-200.8 2177.94,-236.8"/>
<text text-anchor="middle" x="2113" y="-214.6" font-family="Times,serif" font-size="14.00">CoursesComponent </text>
</g>
<!-- CoursesModule&#45;&gt;CoursesComponent  -->
<g id="edge30" class="edge">
<title>CoursesModule&#45;&gt;CoursesComponent </title>
<path fill="none" stroke="black" stroke-dasharray="5,2" d="M2113,-160.81C2113,-160.81 2113,-190.65 2113,-190.65"/>
<polygon fill="black" stroke="black" points="2109.5,-190.65 2113,-200.65 2116.5,-190.65 2109.5,-190.65"/>
</g>
<!-- CoursesRoutingModule&#45;&gt;RouterModule  -->
<g id="edge32" class="edge">
<title>CoursesRoutingModule&#45;&gt;RouterModule </title>
<path fill="none" stroke="black" stroke-dasharray="5,2" d="M2043.07,-84.91C2043.07,-94.7 2043.07,-104.8 2043.07,-104.8 2043.07,-104.8 1777.17,-104.8 1777.17,-104.8 1777.17,-104.8 1777.17,-94.91 1777.17,-94.91"/>
<polygon fill="black" stroke="black" points="1780.67,-94.91 1777.17,-84.91 1773.67,-94.91 1780.67,-94.91"/>
</g>
<!-- CoursesRoutingModule&#45;&gt;CoursesModule -->
<g id="edge29" class="edge">
<title>CoursesRoutingModule&#45;&gt;CoursesModule</title>
<path fill="none" stroke="black" d="M2130.44,-84.81C2130.44,-84.81 2130.44,-114.65 2130.44,-114.65"/>
<polygon fill="black" stroke="black" points="2126.94,-114.65 2130.44,-124.65 2133.94,-114.65 2126.94,-114.65"/>
</g>
<!-- HomeComponent -->
<g id="node28" class="node">
<title>HomeComponent</title>
<polygon fill="#ffffb3" stroke="black" points="1997.55,-160.8 1882.45,-160.8 1882.45,-124.8 1997.55,-124.8 1997.55,-160.8"/>
<text text-anchor="middle" x="1940" y="-138.6" font-family="Times,serif" font-size="14.00">HomeComponent</text>
</g>
<!-- HomeComponent&#45;&gt;HomeModule -->
<g id="edge33" class="edge">
<title>HomeComponent&#45;&gt;HomeModule</title>
<path fill="none" stroke="black" d="M1940,-160.81C1940,-183.29 1940,-218.8 1940,-218.8 1940,-218.8 1840.81,-218.8 1840.81,-218.8"/>
<polygon fill="black" stroke="black" points="1840.81,-215.3 1830.81,-218.8 1840.81,-222.3 1840.81,-215.3"/>
</g>
<!-- HomeComponent  -->
<g id="node31" class="node">
<title>HomeComponent </title>
<polygon fill="#fb8072" stroke="black" points="1843.54,-304.8 1724.46,-304.8 1724.46,-268.8 1843.54,-268.8 1843.54,-304.8"/>
<text text-anchor="middle" x="1784" y="-282.6" font-family="Times,serif" font-size="14.00">HomeComponent </text>
</g>
<!-- HomeModule&#45;&gt;HomeComponent  -->
<g id="edge37" class="edge">
<title>HomeModule&#45;&gt;HomeComponent </title>
<path fill="none" stroke="black" stroke-dasharray="5,2" d="M1784,-237.02C1784,-237.02 1784,-258.53 1784,-258.53"/>
<polygon fill="black" stroke="black" points="1780.5,-258.53 1784,-268.53 1787.5,-258.53 1780.5,-258.53"/>
</g>
<!-- HomeRoutingModule&#45;&gt;RouterModule  -->
<g id="edge39" class="edge">
<title>HomeRoutingModule&#45;&gt;RouterModule </title>
<path fill="none" stroke="black" stroke-dasharray="5,2" d="M1733.96,-124.79C1733.96,-124.79 1733.96,-94.95 1733.96,-94.95"/>
<polygon fill="black" stroke="black" points="1737.46,-94.95 1733.96,-84.95 1730.46,-94.95 1737.46,-94.95"/>
</g>
<!-- HomeRoutingModule&#45;&gt;HomeModule -->
<g id="edge35" class="edge">
<title>HomeRoutingModule&#45;&gt;HomeModule</title>
<path fill="none" stroke="black" d="M1799.63,-160.81C1799.63,-160.81 1799.63,-190.65 1799.63,-190.65"/>
<polygon fill="black" stroke="black" points="1796.13,-190.65 1799.63,-200.65 1803.13,-190.65 1796.13,-190.65"/>
</g>
<!-- PortfolioComponent -->
<g id="node32" class="node">
<title>PortfolioComponent</title>
<polygon fill="#ffffb3" stroke="black" points="2687.61,-84.8 2556.39,-84.8 2556.39,-48.8 2687.61,-48.8 2687.61,-84.8"/>
<text text-anchor="middle" x="2622" y="-62.6" font-family="Times,serif" font-size="14.00">PortfolioComponent</text>
</g>
<!-- PortfolioComponent&#45;&gt;PortfolioModule -->
<g id="edge40" class="edge">
<title>PortfolioComponent&#45;&gt;PortfolioModule</title>
<path fill="none" stroke="black" d="M2622,-84.81C2622,-107.29 2622,-142.8 2622,-142.8 2622,-142.8 2519.68,-142.8 2519.68,-142.8"/>
<polygon fill="black" stroke="black" points="2519.68,-139.3 2509.68,-142.8 2519.68,-146.3 2519.68,-139.3"/>
</g>
<!-- PortfolioComponent  -->
<g id="node35" class="node">
<title>PortfolioComponent </title>
<polygon fill="#fb8072" stroke="black" points="2522.11,-236.8 2387.89,-236.8 2387.89,-200.8 2522.11,-200.8 2522.11,-236.8"/>
<text text-anchor="middle" x="2455" y="-214.6" font-family="Times,serif" font-size="14.00">PortfolioComponent </text>
</g>
<!-- PortfolioModule&#45;&gt;PortfolioComponent  -->
<g id="edge43" class="edge">
<title>PortfolioModule&#45;&gt;PortfolioComponent </title>
<path fill="none" stroke="black" stroke-dasharray="5,2" d="M2455,-160.81C2455,-160.81 2455,-190.65 2455,-190.65"/>
<polygon fill="black" stroke="black" points="2451.5,-190.65 2455,-200.65 2458.5,-190.65 2451.5,-190.65"/>
</g>
<!-- PortfolioRoutingModule&#45;&gt;RouterModule  -->
<g id="edge45" class="edge">
<title>PortfolioRoutingModule&#45;&gt;RouterModule </title>
<path fill="none" stroke="black" stroke-dasharray="5,2" d="M2381.08,-84.86C2381.08,-96.24 2381.08,-108.8 2381.08,-108.8 2381.08,-108.8 1762.77,-108.8 1762.77,-108.8 1762.77,-108.8 1762.77,-94.86 1762.77,-94.86"/>
<polygon fill="black" stroke="black" points="1766.27,-94.86 1762.77,-84.86 1759.27,-94.86 1766.27,-94.86"/>
</g>
<!-- PortfolioRoutingModule&#45;&gt;PortfolioModule -->
<g id="edge42" class="edge">
<title>PortfolioRoutingModule&#45;&gt;PortfolioModule</title>
<path fill="none" stroke="black" d="M2473.22,-84.81C2473.22,-84.81 2473.22,-114.65 2473.22,-114.65"/>
<polygon fill="black" stroke="black" points="2469.72,-114.65 2473.22,-124.65 2476.72,-114.65 2469.72,-114.65"/>
</g>
<!-- PostComponent -->
<g id="node36" class="node">
<title>PostComponent</title>
<polygon fill="#ffffb3" stroke="black" points="2985.96,-84.8 2880.04,-84.8 2880.04,-48.8 2985.96,-48.8 2985.96,-84.8"/>
<text text-anchor="middle" x="2933" y="-62.6" font-family="Times,serif" font-size="14.00">PostComponent</text>
</g>
<!-- PostComponent&#45;&gt;PostModule -->
<g id="edge46" class="edge">
<title>PostComponent&#45;&gt;PostModule</title>
<path fill="none" stroke="black" d="M2933,-84.81C2933,-107.29 2933,-142.8 2933,-142.8 2933,-142.8 2843.92,-142.8 2843.92,-142.8"/>
<polygon fill="black" stroke="black" points="2843.92,-139.3 2833.92,-142.8 2843.92,-146.3 2843.92,-139.3"/>
</g>
<!-- PostComponent  -->
<g id="node39" class="node">
<title>PostComponent </title>
<polygon fill="#fb8072" stroke="black" points="2846.46,-236.8 2737.54,-236.8 2737.54,-200.8 2846.46,-200.8 2846.46,-236.8"/>
<text text-anchor="middle" x="2792" y="-214.6" font-family="Times,serif" font-size="14.00">PostComponent </text>
</g>
<!-- PostModule&#45;&gt;PostComponent  -->
<g id="edge49" class="edge">
<title>PostModule&#45;&gt;PostComponent </title>
<path fill="none" stroke="black" stroke-dasharray="5,2" d="M2792,-160.81C2792,-160.81 2792,-190.65 2792,-190.65"/>
<polygon fill="black" stroke="black" points="2788.5,-190.65 2792,-200.65 2795.5,-190.65 2788.5,-190.65"/>
</g>
<!-- PostRoutingModule&#45;&gt;RouterModule  -->
<g id="edge51" class="edge">
<title>PostRoutingModule&#45;&gt;RouterModule </title>
<path fill="none" stroke="black" stroke-dasharray="5,2" d="M2730.91,-84.84C2730.91,-97.36 2730.91,-111.8 2730.91,-111.8 2730.91,-111.8 1748.37,-111.8 1748.37,-111.8 1748.37,-111.8 1748.37,-94.84 1748.37,-94.84"/>
<polygon fill="black" stroke="black" points="1751.87,-94.84 1748.37,-84.84 1744.87,-94.84 1751.87,-94.84"/>
</g>
<!-- PostRoutingModule&#45;&gt;PostModule -->
<g id="edge48" class="edge">
<title>PostRoutingModule&#45;&gt;PostModule</title>
<path fill="none" stroke="black" d="M2805.95,-84.81C2805.95,-84.81 2805.95,-114.65 2805.95,-114.65"/>
<polygon fill="black" stroke="black" points="2802.45,-114.65 2805.95,-124.65 2809.45,-114.65 2802.45,-114.65"/>
</g>
<!-- SidebarComponent -->
<g id="node40" class="node">
<title>SidebarComponent</title>
<polygon fill="#ffffb3" stroke="black" points="750.1,-236.8 625.9,-236.8 625.9,-200.8 750.1,-200.8 750.1,-236.8"/>
<text text-anchor="middle" x="688" y="-214.6" font-family="Times,serif" font-size="14.00">SidebarComponent</text>
</g>
<!-- SidebarComponent&#45;&gt;SidebarModule -->
<g id="edge52" class="edge">
<title>SidebarComponent&#45;&gt;SidebarModule</title>
<path fill="none" stroke="black" d="M633.98,-200.6C633.98,-194.77 633.98,-189.8 633.98,-189.8 633.98,-189.8 400.05,-189.8 400.05,-189.8 400.05,-189.8 400.05,-170.84 400.05,-170.84"/>
<polygon fill="black" stroke="black" points="403.55,-170.84 400.05,-160.84 396.55,-170.84 403.55,-170.84"/>
</g>
</g>
</svg>
