<?xml version="1.0" encoding="UTF-8" standalone="no"?>
<!DOCTYPE svg PUBLIC "-//W3C//DTD SVG 1.1//EN"
 "http://www.w3.org/Graphics/SVG/1.1/DTD/svg11.dtd">
<!-- Generated by graphviz version 5.0.0 (20220707.1540)
 -->
<!-- Title: dependencies Pages: 1 -->
<svg width="585pt" height="247pt"
 viewBox="0.00 0.00 585.00 246.80" xmlns="http://www.w3.org/2000/svg" xmlns:xlink="http://www.w3.org/1999/xlink">
<g id="graph0" class="graph" transform="scale(1 1) rotate(0) translate(4 242.8)">
<title>dependencies</title>
<polygon fill="white" stroke="transparent" points="-4,4 -4,-242.8 581,-242.8 581,4 -4,4"/>
<text text-anchor="middle" x="288.5" y="-8.2" font-family="sans-serif" font-size="14.00">dependencies</text>
<g id="clust1" class="cluster">
<title>cluster_HomeModule</title>
<polygon fill="none" stroke="black" stroke-dasharray="1,5" points="8,-32.8 8,-230.8 569,-230.8 569,-32.8 8,-32.8"/>
</g>
<g id="clust4" class="cluster">
<title>cluster_HomeModule_imports</title>
<polygon fill="none" stroke="black" points="156,-40.8 156,-92.8 561,-92.8 561,-40.8 156,-40.8"/>
</g>
<g id="clust2" class="cluster">
<title>cluster_HomeModule_declarations</title>
<polygon fill="none" stroke="black" points="16,-40.8 16,-92.8 148,-92.8 148,-40.8 16,-40.8"/>
</g>
<g id="clust5" class="cluster">
<title>cluster_HomeModule_exports</title>
<polygon fill="none" stroke="black" points="216,-170.8 216,-222.8 352,-222.8 352,-170.8 216,-170.8"/>
</g>
<!-- HomeComponent -->
<g id="node1" class="node">
<title>HomeComponent</title>
<polygon fill="#ffffb3" stroke="black" points="139.55,-84.8 24.45,-84.8 24.45,-48.8 139.55,-48.8 139.55,-84.8"/>
<text text-anchor="middle" x="82" y="-62.6" font-family="Times,serif" font-size="14.00">HomeComponent</text>
</g>
<!-- HomeModule -->
<g id="node2" class="node">
<title>HomeModule</title>
<polygon fill="#8dd3c7" stroke="black" points="330.77,-149.8 327.77,-153.8 306.77,-153.8 303.77,-149.8 237.23,-149.8 237.23,-113.8 330.77,-113.8 330.77,-149.8"/>
<text text-anchor="middle" x="284" y="-127.6" font-family="Times,serif" font-size="14.00">HomeModule</text>
</g>
<!-- HomeComponent&#45;&gt;HomeModule -->
<g id="edge1" class="edge">
<title>HomeComponent&#45;&gt;HomeModule</title>
<path fill="none" stroke="black" d="M82,-84.91C82,-104.14 82,-131.8 82,-131.8 82,-131.8 227.15,-131.8 227.15,-131.8"/>
<polygon fill="black" stroke="black" points="227.15,-135.3 237.15,-131.8 227.15,-128.3 227.15,-135.3"/>
</g>
<!-- HomeComponent  -->
<g id="node6" class="node">
<title>HomeComponent </title>
<polygon fill="#fb8072" stroke="black" points="343.54,-214.8 224.46,-214.8 224.46,-178.8 343.54,-178.8 343.54,-214.8"/>
<text text-anchor="middle" x="284" y="-192.6" font-family="Times,serif" font-size="14.00">HomeComponent </text>
</g>
<!-- HomeModule&#45;&gt;HomeComponent  -->
<g id="edge5" class="edge">
<title>HomeModule&#45;&gt;HomeComponent </title>
<path fill="none" stroke="black" stroke-dasharray="5,2" d="M284,-149.91C284,-149.91 284,-168.79 284,-168.79"/>
<polygon fill="black" stroke="black" points="280.5,-168.79 284,-178.79 287.5,-168.79 280.5,-168.79"/>
</g>
<!-- CommonModule -->
<g id="node3" class="node">
<title>CommonModule</title>
<polygon fill="#8dd3c7" stroke="black" points="552.67,-84.8 549.67,-88.8 528.67,-88.8 525.67,-84.8 441.33,-84.8 441.33,-48.8 552.67,-48.8 552.67,-84.8"/>
<text text-anchor="middle" x="497" y="-62.6" font-family="Times,serif" font-size="14.00">CommonModule</text>
</g>
<!-- CommonModule&#45;&gt;HomeModule -->
<g id="edge2" class="edge">
<title>CommonModule&#45;&gt;HomeModule</title>
<path fill="none" stroke="black" d="M497,-84.91C497,-104.14 497,-131.8 497,-131.8 497,-131.8 341.01,-131.8 341.01,-131.8"/>
<polygon fill="black" stroke="black" points="341.01,-128.3 331.01,-131.8 341.01,-135.3 341.01,-128.3"/>
</g>
<!-- HomeRoutingModule -->
<g id="node4" class="node">
<title>HomeRoutingModule</title>
<polygon fill="#8dd3c7" stroke="black" points="423.38,-84.8 420.38,-88.8 399.38,-88.8 396.38,-84.8 284.62,-84.8 284.62,-48.8 423.38,-48.8 423.38,-84.8"/>
<text text-anchor="middle" x="354" y="-62.6" font-family="Times,serif" font-size="14.00">HomeRoutingModule</text>
</g>
<!-- HomeRoutingModule&#45;&gt;HomeModule -->
<g id="edge3" class="edge">
<title>HomeRoutingModule&#45;&gt;HomeModule</title>
<path fill="none" stroke="black" d="M307.72,-84.91C307.72,-84.91 307.72,-103.79 307.72,-103.79"/>
<polygon fill="black" stroke="black" points="304.22,-103.79 307.72,-113.79 311.22,-103.79 304.22,-103.79"/>
</g>
<!-- SidebarModule -->
<g id="node5" class="node">
<title>SidebarModule</title>
<polygon fill="#8dd3c7" stroke="black" points="266.32,-84.8 263.32,-88.8 242.32,-88.8 239.32,-84.8 163.68,-84.8 163.68,-48.8 266.32,-48.8 266.32,-84.8"/>
<text text-anchor="middle" x="215" y="-62.6" font-family="Times,serif" font-size="14.00">SidebarModule</text>
</g>
<!-- SidebarModule&#45;&gt;HomeModule -->
<g id="edge4" class="edge">
<title>SidebarModule&#45;&gt;HomeModule</title>
<path fill="none" stroke="black" d="M251.64,-84.91C251.64,-84.91 251.64,-103.79 251.64,-103.79"/>
<polygon fill="black" stroke="black" points="248.14,-103.79 251.64,-113.79 255.14,-103.79 248.14,-103.79"/>
</g>
</g>
</svg>
