<?xml version="1.0" encoding="UTF-8" standalone="no"?>
<!DOCTYPE svg PUBLIC "-//W3C//DTD SVG 1.1//EN"
 "http://www.w3.org/Graphics/SVG/1.1/DTD/svg11.dtd">
<!-- Generated by graphviz version 5.0.0 (20220707.1540)
 -->
<!-- Title: dependencies Pages: 1 -->
<svg width="602pt" height="247pt"
 viewBox="0.00 0.00 602.00 246.80" xmlns="http://www.w3.org/2000/svg" xmlns:xlink="http://www.w3.org/1999/xlink">
<g id="graph0" class="graph" transform="scale(1 1) rotate(0) translate(4 242.8)">
<title>dependencies</title>
<polygon fill="white" stroke="transparent" points="-4,4 -4,-242.8 598,-242.8 598,4 -4,4"/>
<text text-anchor="middle" x="297" y="-8.2" font-family="sans-serif" font-size="14.00">dependencies</text>
<g id="clust1" class="cluster">
<title>cluster_ContactModule</title>
<polygon fill="none" stroke="black" stroke-dasharray="1,5" points="8,-32.8 8,-230.8 586,-230.8 586,-32.8 8,-32.8"/>
</g>
<g id="clust2" class="cluster">
<title>cluster_ContactModule_declarations</title>
<polygon fill="none" stroke="black" points="438,-40.8 438,-92.8 578,-92.8 578,-40.8 438,-40.8"/>
</g>
<g id="clust4" class="cluster">
<title>cluster_ContactModule_imports</title>
<polygon fill="none" stroke="black" points="16,-40.8 16,-92.8 430,-92.8 430,-40.8 16,-40.8"/>
</g>
<g id="clust5" class="cluster">
<title>cluster_ContactModule_exports</title>
<polygon fill="none" stroke="black" points="220,-170.8 220,-222.8 364,-222.8 364,-170.8 220,-170.8"/>
</g>
<!-- ContactComponent -->
<g id="node1" class="node">
<title>ContactComponent</title>
<polygon fill="#ffffb3" stroke="black" points="570.38,-84.8 445.62,-84.8 445.62,-48.8 570.38,-48.8 570.38,-84.8"/>
<text text-anchor="middle" x="508" y="-62.6" font-family="Times,serif" font-size="14.00">ContactComponent</text>
</g>
<!-- ContactModule -->
<g id="node2" class="node">
<title>ContactModule</title>
<polygon fill="#8dd3c7" stroke="black" points="343.6,-149.8 340.6,-153.8 319.6,-153.8 316.6,-149.8 240.4,-149.8 240.4,-113.8 343.6,-113.8 343.6,-149.8"/>
<text text-anchor="middle" x="292" y="-127.6" font-family="Times,serif" font-size="14.00">ContactModule</text>
</g>
<!-- ContactComponent&#45;&gt;ContactModule -->
<g id="edge1" class="edge">
<title>ContactComponent&#45;&gt;ContactModule</title>
<path fill="none" stroke="black" d="M508,-84.91C508,-104.14 508,-131.8 508,-131.8 508,-131.8 353.74,-131.8 353.74,-131.8"/>
<polygon fill="black" stroke="black" points="353.74,-128.3 343.74,-131.8 353.74,-135.3 353.74,-128.3"/>
</g>
<!-- ContactComponent  -->
<g id="node6" class="node">
<title>ContactComponent </title>
<polygon fill="#fb8072" stroke="black" points="356.38,-214.8 227.62,-214.8 227.62,-178.8 356.38,-178.8 356.38,-214.8"/>
<text text-anchor="middle" x="292" y="-192.6" font-family="Times,serif" font-size="14.00">ContactComponent </text>
</g>
<!-- ContactModule&#45;&gt;ContactComponent  -->
<g id="edge5" class="edge">
<title>ContactModule&#45;&gt;ContactComponent </title>
<path fill="none" stroke="black" stroke-dasharray="5,2" d="M292,-149.91C292,-149.91 292,-168.79 292,-168.79"/>
<polygon fill="black" stroke="black" points="288.5,-168.79 292,-178.79 295.5,-168.79 288.5,-168.79"/>
</g>
<!-- CommonModule -->
<g id="node3" class="node">
<title>CommonModule</title>
<polygon fill="#8dd3c7" stroke="black" points="421.67,-84.8 418.67,-88.8 397.67,-88.8 394.67,-84.8 310.33,-84.8 310.33,-48.8 421.67,-48.8 421.67,-84.8"/>
<text text-anchor="middle" x="366" y="-62.6" font-family="Times,serif" font-size="14.00">CommonModule</text>
</g>
<!-- CommonModule&#45;&gt;ContactModule -->
<g id="edge2" class="edge">
<title>CommonModule&#45;&gt;ContactModule</title>
<path fill="none" stroke="black" d="M326.86,-84.91C326.86,-84.91 326.86,-103.79 326.86,-103.79"/>
<polygon fill="black" stroke="black" points="323.36,-103.79 326.86,-113.79 330.36,-103.79 323.36,-103.79"/>
</g>
<!-- ContactRoutingModule -->
<g id="node4" class="node">
<title>ContactRoutingModule</title>
<polygon fill="#8dd3c7" stroke="black" points="292.21,-84.8 289.21,-88.8 268.21,-88.8 265.21,-84.8 143.79,-84.8 143.79,-48.8 292.21,-48.8 292.21,-84.8"/>
<text text-anchor="middle" x="218" y="-62.6" font-family="Times,serif" font-size="14.00">ContactRoutingModule</text>
</g>
<!-- ContactRoutingModule&#45;&gt;ContactModule -->
<g id="edge3" class="edge">
<title>ContactRoutingModule&#45;&gt;ContactModule</title>
<path fill="none" stroke="black" d="M266.28,-84.91C266.28,-84.91 266.28,-103.79 266.28,-103.79"/>
<polygon fill="black" stroke="black" points="262.78,-103.79 266.28,-113.79 269.78,-103.79 262.78,-103.79"/>
</g>
<!-- SidebarModule -->
<g id="node5" class="node">
<title>SidebarModule</title>
<polygon fill="#8dd3c7" stroke="black" points="126.32,-84.8 123.32,-88.8 102.32,-88.8 99.32,-84.8 23.68,-84.8 23.68,-48.8 126.32,-48.8 126.32,-84.8"/>
<text text-anchor="middle" x="75" y="-62.6" font-family="Times,serif" font-size="14.00">SidebarModule</text>
</g>
<!-- SidebarModule&#45;&gt;ContactModule -->
<g id="edge4" class="edge">
<title>SidebarModule&#45;&gt;ContactModule</title>
<path fill="none" stroke="black" d="M75,-84.91C75,-104.14 75,-131.8 75,-131.8 75,-131.8 230.3,-131.8 230.3,-131.8"/>
<polygon fill="black" stroke="black" points="230.3,-135.3 240.3,-131.8 230.3,-128.3 230.3,-135.3"/>
</g>
</g>
</svg>
