<?xml version="1.0" encoding="UTF-8" standalone="no"?>
<!DOCTYPE svg PUBLIC "-//W3C//DTD SVG 1.1//EN"
 "http://www.w3.org/Graphics/SVG/1.1/DTD/svg11.dtd">
<!-- Generated by graphviz version 5.0.0 (20220707.1540)
 -->
<!-- Title: dependencies Pages: 1 -->
<svg width="316pt" height="247pt"
 viewBox="0.00 0.00 316.00 246.80" xmlns="http://www.w3.org/2000/svg" xmlns:xlink="http://www.w3.org/1999/xlink">
<g id="graph0" class="graph" transform="scale(1 1) rotate(0) translate(4 242.8)">
<title>dependencies</title>
<polygon fill="white" stroke="transparent" points="-4,4 -4,-242.8 312,-242.8 312,4 -4,4"/>
<text text-anchor="middle" x="154" y="-8.2" font-family="sans-serif" font-size="14.00">dependencies</text>
<g id="clust1" class="cluster">
<title>cluster_SidebarModule</title>
<polygon fill="none" stroke="black" stroke-dasharray="1,5" points="8,-32.8 8,-230.8 300,-230.8 300,-32.8 8,-32.8"/>
</g>
<g id="clust4" class="cluster">
<title>cluster_SidebarModule_imports</title>
<polygon fill="none" stroke="black" points="164,-40.8 164,-92.8 292,-92.8 292,-40.8 164,-40.8"/>
</g>
<g id="clust5" class="cluster">
<title>cluster_SidebarModule_exports</title>
<polygon fill="none" stroke="black" points="82,-170.8 82,-222.8 226,-222.8 226,-170.8 82,-170.8"/>
</g>
<g id="clust2" class="cluster">
<title>cluster_SidebarModule_declarations</title>
<polygon fill="none" stroke="black" points="16,-40.8 16,-92.8 156,-92.8 156,-40.8 16,-40.8"/>
</g>
<!-- SidebarComponent -->
<g id="node1" class="node">
<title>SidebarComponent</title>
<polygon fill="#ffffb3" stroke="black" points="148.1,-84.8 23.9,-84.8 23.9,-48.8 148.1,-48.8 148.1,-84.8"/>
<text text-anchor="middle" x="86" y="-62.6" font-family="Times,serif" font-size="14.00">SidebarComponent</text>
</g>
<!-- SidebarModule -->
<g id="node2" class="node">
<title>SidebarModule</title>
<polygon fill="#8dd3c7" stroke="black" points="205.32,-149.8 202.32,-153.8 181.32,-153.8 178.32,-149.8 102.68,-149.8 102.68,-113.8 205.32,-113.8 205.32,-149.8"/>
<text text-anchor="middle" x="154" y="-127.6" font-family="Times,serif" font-size="14.00">SidebarModule</text>
</g>
<!-- SidebarComponent&#45;&gt;SidebarModule -->
<g id="edge1" class="edge">
<title>SidebarComponent&#45;&gt;SidebarModule</title>
<path fill="none" stroke="black" d="M125.44,-84.91C125.44,-84.91 125.44,-103.79 125.44,-103.79"/>
<polygon fill="black" stroke="black" points="121.94,-103.79 125.44,-113.79 128.94,-103.79 121.94,-103.79"/>
</g>
<!-- SidebarComponent  -->
<g id="node4" class="node">
<title>SidebarComponent </title>
<polygon fill="#fb8072" stroke="black" points="217.6,-214.8 90.4,-214.8 90.4,-178.8 217.6,-178.8 217.6,-214.8"/>
<text text-anchor="middle" x="154" y="-192.6" font-family="Times,serif" font-size="14.00">SidebarComponent </text>
</g>
<!-- SidebarModule&#45;&gt;SidebarComponent  -->
<g id="edge3" class="edge">
<title>SidebarModule&#45;&gt;SidebarComponent </title>
<path fill="none" stroke="black" stroke-dasharray="5,2" d="M154,-149.91C154,-149.91 154,-168.79 154,-168.79"/>
<polygon fill="black" stroke="black" points="150.5,-168.79 154,-178.79 157.5,-168.79 150.5,-168.79"/>
</g>
<!-- CommonModule -->
<g id="node3" class="node">
<title>CommonModule</title>
<polygon fill="#8dd3c7" stroke="black" points="283.67,-84.8 280.67,-88.8 259.67,-88.8 256.67,-84.8 172.33,-84.8 172.33,-48.8 283.67,-48.8 283.67,-84.8"/>
<text text-anchor="middle" x="228" y="-62.6" font-family="Times,serif" font-size="14.00">CommonModule</text>
</g>
<!-- CommonModule&#45;&gt;SidebarModule -->
<g id="edge2" class="edge">
<title>CommonModule&#45;&gt;SidebarModule</title>
<path fill="none" stroke="black" d="M188.66,-84.91C188.66,-84.91 188.66,-103.79 188.66,-103.79"/>
<polygon fill="black" stroke="black" points="185.16,-103.79 188.66,-113.79 192.16,-103.79 185.16,-103.79"/>
</g>
</g>
</svg>
