<?xml version="1.0" encoding="UTF-8" standalone="no"?>
<!DOCTYPE svg PUBLIC "-//W3C//DTD SVG 1.1//EN"
 "http://www.w3.org/Graphics/SVG/1.1/DTD/svg11.dtd">
<!-- Generated by graphviz version 5.0.0 (20220707.1540)
 -->
<!-- Title: dependencies Pages: 1 -->
<svg width="486pt" height="247pt"
 viewBox="0.00 0.00 486.00 246.80" xmlns="http://www.w3.org/2000/svg" xmlns:xlink="http://www.w3.org/1999/xlink">
<g id="graph0" class="graph" transform="scale(1 1) rotate(0) translate(4 242.8)">
<title>dependencies</title>
<polygon fill="white" stroke="transparent" points="-4,4 -4,-242.8 482,-242.8 482,4 -4,4"/>
<text text-anchor="middle" x="239" y="-8.2" font-family="sans-serif" font-size="14.00">dependencies</text>
<g id="clust1" class="cluster">
<title>cluster_CoursesModule</title>
<polygon fill="none" stroke="black" stroke-dasharray="1,5" points="8,-32.8 8,-230.8 470,-230.8 470,-32.8 8,-32.8"/>
</g>
<g id="clust2" class="cluster">
<title>cluster_CoursesModule_declarations</title>
<polygon fill="none" stroke="black" points="320,-40.8 320,-92.8 462,-92.8 462,-40.8 320,-40.8"/>
</g>
<g id="clust4" class="cluster">
<title>cluster_CoursesModule_imports</title>
<polygon fill="none" stroke="black" points="16,-40.8 16,-92.8 312,-92.8 312,-40.8 16,-40.8"/>
</g>
<g id="clust5" class="cluster">
<title>cluster_CoursesModule_exports</title>
<polygon fill="none" stroke="black" points="175,-170.8 175,-222.8 321,-222.8 321,-170.8 175,-170.8"/>
</g>
<!-- CoursesComponent -->
<g id="node1" class="node">
<title>CoursesComponent</title>
<polygon fill="#ffffb3" stroke="black" points="454.44,-84.8 327.56,-84.8 327.56,-48.8 454.44,-48.8 454.44,-84.8"/>
<text text-anchor="middle" x="391" y="-62.6" font-family="Times,serif" font-size="14.00">CoursesComponent</text>
</g>
<!-- CoursesModule -->
<g id="node2" class="node">
<title>CoursesModule</title>
<polygon fill="#8dd3c7" stroke="black" points="300.16,-149.8 297.16,-153.8 276.16,-153.8 273.16,-149.8 195.84,-149.8 195.84,-113.8 300.16,-113.8 300.16,-149.8"/>
<text text-anchor="middle" x="248" y="-127.6" font-family="Times,serif" font-size="14.00">CoursesModule</text>
</g>
<!-- CoursesComponent&#45;&gt;CoursesModule -->
<g id="edge1" class="edge">
<title>CoursesComponent&#45;&gt;CoursesModule</title>
<path fill="none" stroke="black" d="M391,-84.91C391,-104.14 391,-131.8 391,-131.8 391,-131.8 310.44,-131.8 310.44,-131.8"/>
<polygon fill="black" stroke="black" points="310.44,-128.3 300.44,-131.8 310.44,-135.3 310.44,-128.3"/>
</g>
<!-- CoursesComponent  -->
<g id="node5" class="node">
<title>CoursesComponent </title>
<polygon fill="#fb8072" stroke="black" points="312.94,-214.8 183.06,-214.8 183.06,-178.8 312.94,-178.8 312.94,-214.8"/>
<text text-anchor="middle" x="248" y="-192.6" font-family="Times,serif" font-size="14.00">CoursesComponent </text>
</g>
<!-- CoursesModule&#45;&gt;CoursesComponent  -->
<g id="edge4" class="edge">
<title>CoursesModule&#45;&gt;CoursesComponent </title>
<path fill="none" stroke="black" stroke-dasharray="5,2" d="M248,-149.91C248,-149.91 248,-168.79 248,-168.79"/>
<polygon fill="black" stroke="black" points="244.5,-168.79 248,-178.79 251.5,-168.79 244.5,-168.79"/>
</g>
<!-- CommonModule -->
<g id="node3" class="node">
<title>CommonModule</title>
<polygon fill="#8dd3c7" stroke="black" points="303.67,-84.8 300.67,-88.8 279.67,-88.8 276.67,-84.8 192.33,-84.8 192.33,-48.8 303.67,-48.8 303.67,-84.8"/>
<text text-anchor="middle" x="248" y="-62.6" font-family="Times,serif" font-size="14.00">CommonModule</text>
</g>
<!-- CommonModule&#45;&gt;CoursesModule -->
<g id="edge2" class="edge">
<title>CommonModule&#45;&gt;CoursesModule</title>
<path fill="none" stroke="black" d="M248,-84.91C248,-84.91 248,-103.79 248,-103.79"/>
<polygon fill="black" stroke="black" points="244.5,-103.79 248,-113.79 251.5,-103.79 244.5,-103.79"/>
</g>
<!-- CoursesRoutingModule -->
<g id="node4" class="node">
<title>CoursesRoutingModule</title>
<polygon fill="#8dd3c7" stroke="black" points="173.78,-84.8 170.78,-88.8 149.78,-88.8 146.78,-84.8 24.22,-84.8 24.22,-48.8 173.78,-48.8 173.78,-84.8"/>
<text text-anchor="middle" x="99" y="-62.6" font-family="Times,serif" font-size="14.00">CoursesRoutingModule</text>
</g>
<!-- CoursesRoutingModule&#45;&gt;CoursesModule -->
<g id="edge3" class="edge">
<title>CoursesRoutingModule&#45;&gt;CoursesModule</title>
<path fill="none" stroke="black" d="M99,-84.91C99,-104.14 99,-131.8 99,-131.8 99,-131.8 185.47,-131.8 185.47,-131.8"/>
<polygon fill="black" stroke="black" points="185.47,-135.3 195.47,-131.8 185.47,-128.3 185.47,-135.3"/>
</g>
</g>
</svg>
