<?xml version="1.0" encoding="UTF-8" standalone="no"?>
<!DOCTYPE svg PUBLIC "-//W3C//DTD SVG 1.1//EN"
 "http://www.w3.org/Graphics/SVG/1.1/DTD/svg11.dtd">
<!-- Generated by graphviz version 5.0.0 (20220707.1540)
 -->
<!-- Title: dependencies Pages: 1 -->
<svg width="356pt" height="247pt"
 viewBox="0.00 0.00 356.00 246.80" xmlns="http://www.w3.org/2000/svg" xmlns:xlink="http://www.w3.org/1999/xlink">
<g id="graph0" class="graph" transform="scale(1 1) rotate(0) translate(4 242.8)">
<title>dependencies</title>
<polygon fill="white" stroke="transparent" points="-4,4 -4,-242.8 352,-242.8 352,4 -4,4"/>
<text text-anchor="middle" x="174" y="-8.2" font-family="sans-serif" font-size="14.00">dependencies</text>
<g id="clust1" class="cluster">
<title>cluster_CoursesModule</title>
<polygon fill="none" stroke="black" stroke-dasharray="1,5" points="8,-32.8 8,-230.8 340,-230.8 340,-32.8 8,-32.8"/>
</g>
<g id="clust5" class="cluster">
<title>cluster_CoursesModule_exports</title>
<polygon fill="none" stroke="black" points="96,-170.8 96,-222.8 242,-222.8 242,-170.8 96,-170.8"/>
</g>
<g id="clust4" class="cluster">
<title>cluster_CoursesModule_imports</title>
<polygon fill="none" stroke="black" points="166,-40.8 166,-92.8 332,-92.8 332,-40.8 166,-40.8"/>
</g>
<g id="clust2" class="cluster">
<title>cluster_CoursesModule_declarations</title>
<polygon fill="none" stroke="black" points="16,-40.8 16,-92.8 158,-92.8 158,-40.8 16,-40.8"/>
</g>
<!-- CoursesComponent -->
<g id="node1" class="node">
<title>CoursesComponent</title>
<polygon fill="#ffffb3" stroke="black" points="150.44,-84.8 23.56,-84.8 23.56,-48.8 150.44,-48.8 150.44,-84.8"/>
<text text-anchor="middle" x="87" y="-62.6" font-family="Times,serif" font-size="14.00">CoursesComponent</text>
</g>
<!-- CoursesModule -->
<g id="node2" class="node">
<title>CoursesModule</title>
<polygon fill="#8dd3c7" stroke="black" points="221.16,-149.8 218.16,-153.8 197.16,-153.8 194.16,-149.8 116.84,-149.8 116.84,-113.8 221.16,-113.8 221.16,-149.8"/>
<text text-anchor="middle" x="169" y="-127.6" font-family="Times,serif" font-size="14.00">CoursesModule</text>
</g>
<!-- CoursesComponent&#45;&gt;CoursesModule -->
<g id="edge1" class="edge">
<title>CoursesComponent&#45;&gt;CoursesModule</title>
<path fill="none" stroke="black" d="M133.44,-84.91C133.44,-84.91 133.44,-103.79 133.44,-103.79"/>
<polygon fill="black" stroke="black" points="129.94,-103.79 133.44,-113.79 136.94,-103.79 129.94,-103.79"/>
</g>
<!-- CoursesComponent  -->
<g id="node4" class="node">
<title>CoursesComponent </title>
<polygon fill="#fb8072" stroke="black" points="233.94,-214.8 104.06,-214.8 104.06,-178.8 233.94,-178.8 233.94,-214.8"/>
<text text-anchor="middle" x="169" y="-192.6" font-family="Times,serif" font-size="14.00">CoursesComponent </text>
</g>
<!-- CoursesModule&#45;&gt;CoursesComponent  -->
<g id="edge3" class="edge">
<title>CoursesModule&#45;&gt;CoursesComponent </title>
<path fill="none" stroke="black" stroke-dasharray="5,2" d="M169,-149.91C169,-149.91 169,-168.79 169,-168.79"/>
<polygon fill="black" stroke="black" points="165.5,-168.79 169,-178.79 172.5,-168.79 165.5,-168.79"/>
</g>
<!-- CoursesRoutingModule -->
<g id="node3" class="node">
<title>CoursesRoutingModule</title>
<polygon fill="#8dd3c7" stroke="black" points="323.78,-84.8 320.78,-88.8 299.78,-88.8 296.78,-84.8 174.22,-84.8 174.22,-48.8 323.78,-48.8 323.78,-84.8"/>
<text text-anchor="middle" x="249" y="-62.6" font-family="Times,serif" font-size="14.00">CoursesRoutingModule</text>
</g>
<!-- CoursesRoutingModule&#45;&gt;CoursesModule -->
<g id="edge2" class="edge">
<title>CoursesRoutingModule&#45;&gt;CoursesModule</title>
<path fill="none" stroke="black" d="M197.72,-84.91C197.72,-84.91 197.72,-103.79 197.72,-103.79"/>
<polygon fill="black" stroke="black" points="194.22,-103.79 197.72,-113.79 201.22,-103.79 194.22,-103.79"/>
</g>
</g>
</svg>
