<?xml version="1.0" encoding="UTF-8" standalone="no"?>
<!DOCTYPE svg PUBLIC "-//W3C//DTD SVG 1.1//EN"
 "http://www.w3.org/Graphics/SVG/1.1/DTD/svg11.dtd">
<!-- Generated by graphviz version 5.0.0 (20220707.1540)
 -->
<!-- Title: dependencies Pages: 1 -->
<svg width="610pt" height="247pt"
 viewBox="0.00 0.00 610.00 246.80" xmlns="http://www.w3.org/2000/svg" xmlns:xlink="http://www.w3.org/1999/xlink">
<g id="graph0" class="graph" transform="scale(1 1) rotate(0) translate(4 242.8)">
<title>dependencies</title>
<polygon fill="white" stroke="transparent" points="-4,4 -4,-242.8 606,-242.8 606,4 -4,4"/>
<text text-anchor="middle" x="301" y="-8.2" font-family="sans-serif" font-size="14.00">dependencies</text>
<g id="clust1" class="cluster">
<title>cluster_ComponentsModule</title>
<polygon fill="none" stroke="black" stroke-dasharray="1,5" points="8,-32.8 8,-230.8 594,-230.8 594,-32.8 8,-32.8"/>
</g>
<g id="clust5" class="cluster">
<title>cluster_ComponentsModule_imports</title>
<polygon fill="none" stroke="black" points="222,-40.8 222,-92.8 586,-92.8 586,-40.8 222,-40.8"/>
</g>
<g id="clust2" class="cluster">
<title>cluster_ComponentsModule_declarations</title>
<polygon fill="none" stroke="black" points="16,-40.8 16,-92.8 214,-92.8 214,-40.8 16,-40.8"/>
</g>
<g id="clust6" class="cluster">
<title>cluster_ComponentsModule_exports</title>
<polygon fill="none" stroke="black" points="193,-170.8 193,-222.8 397,-222.8 397,-170.8 193,-170.8"/>
</g>
<!-- COMPONENTS -->
<g id="node1" class="node">
<title>COMPONENTS</title>
<polygon fill="#ffffb3" stroke="black" points="206.4,-84.8 95.6,-84.8 95.6,-48.8 206.4,-48.8 206.4,-84.8"/>
<text text-anchor="middle" x="151" y="-62.6" font-family="Times,serif" font-size="14.00">COMPONENTS</text>
</g>
<!-- ComponentsModule -->
<g id="node3" class="node">
<title>ComponentsModule</title>
<polygon fill="#8dd3c7" stroke="black" points="346.33,-149.8 343.33,-153.8 322.33,-153.8 319.33,-149.8 215.67,-149.8 215.67,-113.8 346.33,-113.8 346.33,-149.8"/>
<text text-anchor="middle" x="281" y="-127.6" font-family="Times,serif" font-size="14.00">ComponentsModule</text>
</g>
<!-- COMPONENTS&#45;&gt;ComponentsModule -->
<g id="edge1" class="edge">
<title>COMPONENTS&#45;&gt;ComponentsModule</title>
<path fill="none" stroke="black" d="M206.54,-66.8C216,-66.8 222.84,-66.8 222.84,-66.8 222.84,-66.8 222.84,-103.69 222.84,-103.69"/>
<polygon fill="black" stroke="black" points="219.34,-103.69 222.84,-113.69 226.34,-103.69 219.34,-103.69"/>
</g>
<!-- PIPES -->
<g id="node2" class="node">
<title>PIPES</title>
<polygon fill="#ffffb3" stroke="black" points="78,-84.8 24,-84.8 24,-48.8 78,-48.8 78,-84.8"/>
<text text-anchor="middle" x="51" y="-62.6" font-family="Times,serif" font-size="14.00">PIPES</text>
</g>
<!-- PIPES&#45;&gt;ComponentsModule -->
<g id="edge2" class="edge">
<title>PIPES&#45;&gt;ComponentsModule</title>
<path fill="none" stroke="black" d="M51,-84.91C51,-104.14 51,-131.8 51,-131.8 51,-131.8 205.71,-131.8 205.71,-131.8"/>
<polygon fill="black" stroke="black" points="205.71,-135.3 215.71,-131.8 205.71,-128.3 205.71,-135.3"/>
</g>
<!-- COMPONENTS  -->
<g id="node7" class="node">
<title>COMPONENTS </title>
<polygon fill="#fb8072" stroke="black" points="389.4,-214.8 274.6,-214.8 274.6,-178.8 389.4,-178.8 389.4,-214.8"/>
<text text-anchor="middle" x="332" y="-192.6" font-family="Times,serif" font-size="14.00">COMPONENTS </text>
</g>
<!-- ComponentsModule&#45;&gt;COMPONENTS  -->
<g id="edge6" class="edge">
<title>ComponentsModule&#45;&gt;COMPONENTS </title>
<path fill="none" stroke="black" stroke-dasharray="5,2" d="M310.48,-149.91C310.48,-149.91 310.48,-168.79 310.48,-168.79"/>
<polygon fill="black" stroke="black" points="306.98,-168.79 310.48,-178.79 313.98,-168.79 306.98,-168.79"/>
</g>
<!-- PIPES  -->
<g id="node8" class="node">
<title>PIPES </title>
<polygon fill="#fb8072" stroke="black" points="257.07,-214.8 200.93,-214.8 200.93,-178.8 257.07,-178.8 257.07,-214.8"/>
<text text-anchor="middle" x="229" y="-192.6" font-family="Times,serif" font-size="14.00">PIPES </text>
</g>
<!-- ComponentsModule&#45;&gt;PIPES  -->
<g id="edge7" class="edge">
<title>ComponentsModule&#45;&gt;PIPES </title>
<path fill="none" stroke="black" stroke-dasharray="5,2" d="M236.44,-149.91C236.44,-149.91 236.44,-168.79 236.44,-168.79"/>
<polygon fill="black" stroke="black" points="232.94,-168.79 236.44,-178.79 239.94,-168.79 232.94,-168.79"/>
</g>
<!-- CommonModule -->
<g id="node4" class="node">
<title>CommonModule</title>
<polygon fill="#8dd3c7" stroke="black" points="577.67,-84.8 574.67,-88.8 553.67,-88.8 550.67,-84.8 466.33,-84.8 466.33,-48.8 577.67,-48.8 577.67,-84.8"/>
<text text-anchor="middle" x="522" y="-62.6" font-family="Times,serif" font-size="14.00">CommonModule</text>
</g>
<!-- CommonModule&#45;&gt;ComponentsModule -->
<g id="edge3" class="edge">
<title>CommonModule&#45;&gt;ComponentsModule</title>
<path fill="none" stroke="black" d="M522,-84.91C522,-104.14 522,-131.8 522,-131.8 522,-131.8 356.22,-131.8 356.22,-131.8"/>
<polygon fill="black" stroke="black" points="356.22,-128.3 346.22,-131.8 356.22,-135.3 356.22,-128.3"/>
</g>
<!-- RouterModule -->
<g id="node5" class="node">
<title>RouterModule</title>
<polygon fill="#8dd3c7" stroke="black" points="447.66,-84.8 444.66,-88.8 423.66,-88.8 420.66,-84.8 350.34,-84.8 350.34,-48.8 447.66,-48.8 447.66,-84.8"/>
<text text-anchor="middle" x="399" y="-62.6" font-family="Times,serif" font-size="14.00">RouterModule</text>
</g>
<!-- RouterModule&#45;&gt;ComponentsModule -->
<g id="edge4" class="edge">
<title>RouterModule&#45;&gt;ComponentsModule</title>
<path fill="none" stroke="black" d="M350.14,-66.8C343.64,-66.8 339.16,-66.8 339.16,-66.8 339.16,-66.8 339.16,-103.69 339.16,-103.69"/>
<polygon fill="black" stroke="black" points="335.66,-103.69 339.16,-113.69 342.66,-103.69 335.66,-103.69"/>
</g>
<!-- SidebarModule -->
<g id="node6" class="node">
<title>SidebarModule</title>
<polygon fill="#8dd3c7" stroke="black" points="332.32,-84.8 329.32,-88.8 308.32,-88.8 305.32,-84.8 229.68,-84.8 229.68,-48.8 332.32,-48.8 332.32,-84.8"/>
<text text-anchor="middle" x="281" y="-62.6" font-family="Times,serif" font-size="14.00">SidebarModule</text>
</g>
<!-- SidebarModule&#45;&gt;ComponentsModule -->
<g id="edge5" class="edge">
<title>SidebarModule&#45;&gt;ComponentsModule</title>
<path fill="none" stroke="black" d="M281,-84.91C281,-84.91 281,-103.79 281,-103.79"/>
<polygon fill="black" stroke="black" points="277.5,-103.79 281,-113.79 284.5,-103.79 277.5,-103.79"/>
</g>
</g>
</svg>
