<?xml version="1.0" encoding="UTF-8" standalone="no"?>
<!DOCTYPE svg PUBLIC "-//W3C//DTD SVG 1.1//EN"
 "http://www.w3.org/Graphics/SVG/1.1/DTD/svg11.dtd">
<!-- Generated by graphviz version 5.0.0 (20220707.1540)
 -->
<!-- Title: dependencies Pages: 1 -->
<svg width="968pt" height="247pt"
 viewBox="0.00 0.00 968.00 246.80" xmlns="http://www.w3.org/2000/svg" xmlns:xlink="http://www.w3.org/1999/xlink">
<g id="graph0" class="graph" transform="scale(1 1) rotate(0) translate(4 242.8)">
<title>dependencies</title>
<polygon fill="white" stroke="transparent" points="-4,4 -4,-242.8 964,-242.8 964,4 -4,4"/>
<text text-anchor="middle" x="480" y="-8.2" font-family="sans-serif" font-size="14.00">dependencies</text>
<g id="clust1" class="cluster">
<title>cluster_ComponentsModule</title>
<polygon fill="none" stroke="black" stroke-dasharray="1,5" points="8,-32.8 8,-230.8 952,-230.8 952,-32.8 8,-32.8"/>
</g>
<g id="clust9" class="cluster">
<title>cluster_ComponentsModule_imports</title>
<polygon fill="none" stroke="black" points="826,-40.8 826,-92.8 944,-92.8 944,-40.8 826,-40.8"/>
</g>
<g id="clust10" class="cluster">
<title>cluster_ComponentsModule_exports</title>
<polygon fill="none" stroke="black" points="69,-170.8 69,-222.8 892,-222.8 892,-170.8 69,-170.8"/>
</g>
<g id="clust2" class="cluster">
<title>cluster_ComponentsModule_declarations</title>
<polygon fill="none" stroke="black" points="16,-40.8 16,-92.8 818,-92.8 818,-40.8 16,-40.8"/>
</g>
<!-- DomSecurePipe -->
<g id="node1" class="node">
<title>DomSecurePipe</title>
<polygon fill="#ffffb3" stroke="black" points="810.48,-84.8 703.52,-84.8 703.52,-48.8 810.48,-48.8 810.48,-84.8"/>
<text text-anchor="middle" x="757" y="-62.6" font-family="Times,serif" font-size="14.00">DomSecurePipe</text>
</g>
<!-- ComponentsModule -->
<g id="node7" class="node">
<title>ComponentsModule</title>
<polygon fill="#8dd3c7" stroke="black" points="554.33,-149.8 551.33,-153.8 530.33,-153.8 527.33,-149.8 423.67,-149.8 423.67,-113.8 554.33,-113.8 554.33,-149.8"/>
<text text-anchor="middle" x="489" y="-127.6" font-family="Times,serif" font-size="14.00">ComponentsModule</text>
</g>
<!-- DomSecurePipe&#45;&gt;ComponentsModule -->
<g id="edge1" class="edge">
<title>DomSecurePipe&#45;&gt;ComponentsModule</title>
<path fill="none" stroke="black" d="M729.6,-84.82C729.6,-102.17 729.6,-125.8 729.6,-125.8 729.6,-125.8 564.43,-125.8 564.43,-125.8"/>
<polygon fill="black" stroke="black" points="564.43,-122.3 554.43,-125.8 564.43,-129.3 564.43,-122.3"/>
</g>
<!-- FooterComponent -->
<g id="node2" class="node">
<title>FooterComponent</title>
<polygon fill="#ffffb3" stroke="black" points="685.88,-84.8 568.12,-84.8 568.12,-48.8 685.88,-48.8 685.88,-84.8"/>
<text text-anchor="middle" x="627" y="-62.6" font-family="Times,serif" font-size="14.00">FooterComponent</text>
</g>
<!-- FooterComponent&#45;&gt;ComponentsModule -->
<g id="edge2" class="edge">
<title>FooterComponent&#45;&gt;ComponentsModule</title>
<path fill="none" stroke="black" d="M592.34,-85.04C592.34,-100.37 592.34,-119.8 592.34,-119.8 592.34,-119.8 564.45,-119.8 564.45,-119.8"/>
<polygon fill="black" stroke="black" points="564.45,-116.3 554.45,-119.8 564.45,-123.3 564.45,-116.3"/>
</g>
<!-- HeaderComponent -->
<g id="node3" class="node">
<title>HeaderComponent</title>
<polygon fill="#ffffb3" stroke="black" points="549.75,-84.8 428.25,-84.8 428.25,-48.8 549.75,-48.8 549.75,-84.8"/>
<text text-anchor="middle" x="489" y="-62.6" font-family="Times,serif" font-size="14.00">HeaderComponent</text>
</g>
<!-- HeaderComponent&#45;&gt;ComponentsModule -->
<g id="edge3" class="edge">
<title>HeaderComponent&#45;&gt;ComponentsModule</title>
<path fill="none" stroke="black" d="M489,-84.91C489,-84.91 489,-103.79 489,-103.79"/>
<polygon fill="black" stroke="black" points="485.5,-103.79 489,-113.79 492.5,-103.79 485.5,-103.79"/>
</g>
<!-- NavbarComponent -->
<g id="node4" class="node">
<title>NavbarComponent</title>
<polygon fill="#ffffb3" stroke="black" points="410.03,-84.8 287.97,-84.8 287.97,-48.8 410.03,-48.8 410.03,-84.8"/>
<text text-anchor="middle" x="349" y="-62.6" font-family="Times,serif" font-size="14.00">NavbarComponent</text>
</g>
<!-- NavbarComponent&#45;&gt;ComponentsModule -->
<g id="edge4" class="edge">
<title>NavbarComponent&#45;&gt;ComponentsModule</title>
<path fill="none" stroke="black" d="M378.62,-85.04C378.62,-100.37 378.62,-119.8 378.62,-119.8 378.62,-119.8 413.52,-119.8 413.52,-119.8"/>
<polygon fill="black" stroke="black" points="413.52,-123.3 423.52,-119.8 413.52,-116.3 413.52,-123.3"/>
</g>
<!-- NotFoundComponent -->
<g id="node5" class="node">
<title>NotFoundComponent</title>
<polygon fill="#ffffb3" stroke="black" points="270.12,-84.8 131.88,-84.8 131.88,-48.8 270.12,-48.8 270.12,-84.8"/>
<text text-anchor="middle" x="201" y="-62.6" font-family="Times,serif" font-size="14.00">NotFoundComponent</text>
</g>
<!-- NotFoundComponent&#45;&gt;ComponentsModule -->
<g id="edge5" class="edge">
<title>NotFoundComponent&#45;&gt;ComponentsModule</title>
<path fill="none" stroke="black" d="M228.62,-84.82C228.62,-102.17 228.62,-125.8 228.62,-125.8 228.62,-125.8 413.63,-125.8 413.63,-125.8"/>
<polygon fill="black" stroke="black" points="413.63,-129.3 423.63,-125.8 413.63,-122.3 413.63,-129.3"/>
</g>
<!-- YoutubePipe -->
<g id="node6" class="node">
<title>YoutubePipe</title>
<polygon fill="#ffffb3" stroke="black" points="113.6,-84.8 24.4,-84.8 24.4,-48.8 113.6,-48.8 113.6,-84.8"/>
<text text-anchor="middle" x="69" y="-62.6" font-family="Times,serif" font-size="14.00">YoutubePipe</text>
</g>
<!-- YoutubePipe&#45;&gt;ComponentsModule -->
<g id="edge6" class="edge">
<title>YoutubePipe&#45;&gt;ComponentsModule</title>
<path fill="none" stroke="black" d="M95.12,-84.91C95.12,-104.14 95.12,-131.8 95.12,-131.8 95.12,-131.8 413.52,-131.8 413.52,-131.8"/>
<polygon fill="black" stroke="black" points="413.52,-135.3 423.52,-131.8 413.52,-128.3 413.52,-135.3"/>
</g>
<!-- DomSecurePipe  -->
<g id="node9" class="node">
<title>DomSecurePipe </title>
<polygon fill="#fb8072" stroke="black" points="884.48,-214.8 773.52,-214.8 773.52,-178.8 884.48,-178.8 884.48,-214.8"/>
<text text-anchor="middle" x="829" y="-192.6" font-family="Times,serif" font-size="14.00">DomSecurePipe </text>
</g>
<!-- ComponentsModule&#45;&gt;DomSecurePipe  -->
<g id="edge8" class="edge">
<title>ComponentsModule&#45;&gt;DomSecurePipe </title>
<path fill="none" stroke="black" stroke-dasharray="5,2" d="M554.4,-137.8C643.51,-137.8 792.12,-137.8 792.12,-137.8 792.12,-137.8 792.12,-168.78 792.12,-168.78"/>
<polygon fill="black" stroke="black" points="788.63,-168.78 792.12,-178.78 795.63,-168.78 788.63,-168.78"/>
</g>
<!-- FooterComponent  -->
<g id="node10" class="node">
<title>FooterComponent </title>
<polygon fill="#fb8072" stroke="black" points="755.88,-214.8 634.12,-214.8 634.12,-178.8 755.88,-178.8 755.88,-214.8"/>
<text text-anchor="middle" x="695" y="-192.6" font-family="Times,serif" font-size="14.00">FooterComponent </text>
</g>
<!-- ComponentsModule&#45;&gt;FooterComponent  -->
<g id="edge9" class="edge">
<title>ComponentsModule&#45;&gt;FooterComponent </title>
<path fill="none" stroke="black" stroke-dasharray="5,2" d="M554.18,-143.8C602.54,-143.8 660.12,-143.8 660.12,-143.8 660.12,-143.8 660.12,-168.56 660.12,-168.56"/>
<polygon fill="black" stroke="black" points="656.63,-168.56 660.12,-178.56 663.63,-168.56 656.63,-168.56"/>
</g>
<!-- HeaderComponent  -->
<g id="node11" class="node">
<title>HeaderComponent </title>
<polygon fill="#fb8072" stroke="black" points="616.75,-214.8 491.25,-214.8 491.25,-178.8 616.75,-178.8 616.75,-214.8"/>
<text text-anchor="middle" x="554" y="-192.6" font-family="Times,serif" font-size="14.00">HeaderComponent </text>
</g>
<!-- ComponentsModule&#45;&gt;HeaderComponent  -->
<g id="edge10" class="edge">
<title>ComponentsModule&#45;&gt;HeaderComponent </title>
<path fill="none" stroke="black" stroke-dasharray="5,2" d="M522.77,-149.91C522.77,-149.91 522.77,-168.79 522.77,-168.79"/>
<polygon fill="black" stroke="black" points="519.27,-168.79 522.77,-178.79 526.27,-168.79 519.27,-168.79"/>
</g>
<!-- NavbarComponent  -->
<g id="node12" class="node">
<title>NavbarComponent </title>
<polygon fill="#fb8072" stroke="black" points="473.03,-214.8 346.97,-214.8 346.97,-178.8 473.03,-178.8 473.03,-214.8"/>
<text text-anchor="middle" x="410" y="-192.6" font-family="Times,serif" font-size="14.00">NavbarComponent </text>
</g>
<!-- ComponentsModule&#45;&gt;NavbarComponent  -->
<g id="edge11" class="edge">
<title>ComponentsModule&#45;&gt;NavbarComponent </title>
<path fill="none" stroke="black" stroke-dasharray="5,2" d="M448.43,-149.91C448.43,-149.91 448.43,-168.79 448.43,-168.79"/>
<polygon fill="black" stroke="black" points="444.93,-168.79 448.43,-178.79 451.93,-168.79 444.93,-168.79"/>
</g>
<!-- NotFoundComponent  -->
<g id="node13" class="node">
<title>NotFoundComponent </title>
<polygon fill="#fb8072" stroke="black" points="328.62,-214.8 187.38,-214.8 187.38,-178.8 328.62,-178.8 328.62,-214.8"/>
<text text-anchor="middle" x="258" y="-192.6" font-family="Times,serif" font-size="14.00">NotFoundComponent </text>
</g>
<!-- ComponentsModule&#45;&gt;NotFoundComponent  -->
<g id="edge12" class="edge">
<title>ComponentsModule&#45;&gt;NotFoundComponent </title>
<path fill="none" stroke="black" stroke-dasharray="5,2" d="M423.75,-143.8C371.99,-143.8 308.27,-143.8 308.27,-143.8 308.27,-143.8 308.27,-168.56 308.27,-168.56"/>
<polygon fill="black" stroke="black" points="304.77,-168.56 308.27,-178.56 311.77,-168.56 304.77,-168.56"/>
</g>
<!-- YoutubePipe  -->
<g id="node14" class="node">
<title>YoutubePipe </title>
<polygon fill="#fb8072" stroke="black" points="169.1,-214.8 76.9,-214.8 76.9,-178.8 169.1,-178.8 169.1,-214.8"/>
<text text-anchor="middle" x="123" y="-192.6" font-family="Times,serif" font-size="14.00">YoutubePipe </text>
</g>
<!-- ComponentsModule&#45;&gt;YoutubePipe  -->
<g id="edge13" class="edge">
<title>ComponentsModule&#45;&gt;YoutubePipe </title>
<path fill="none" stroke="black" stroke-dasharray="5,2" d="M423.76,-137.8C325.43,-137.8 150.62,-137.8 150.62,-137.8 150.62,-137.8 150.62,-168.78 150.62,-168.78"/>
<polygon fill="black" stroke="black" points="147.12,-168.78 150.62,-178.78 154.12,-168.78 147.12,-168.78"/>
</g>
<!-- SidebarModule -->
<g id="node8" class="node">
<title>SidebarModule</title>
<polygon fill="#8dd3c7" stroke="black" points="936.32,-84.8 933.32,-88.8 912.32,-88.8 909.32,-84.8 833.68,-84.8 833.68,-48.8 936.32,-48.8 936.32,-84.8"/>
<text text-anchor="middle" x="885" y="-62.6" font-family="Times,serif" font-size="14.00">SidebarModule</text>
</g>
<!-- SidebarModule&#45;&gt;ComponentsModule -->
<g id="edge7" class="edge">
<title>SidebarModule&#45;&gt;ComponentsModule</title>
<path fill="none" stroke="black" d="M859.04,-84.91C859.04,-104.14 859.04,-131.8 859.04,-131.8 859.04,-131.8 564.3,-131.8 564.3,-131.8"/>
<polygon fill="black" stroke="black" points="564.3,-128.3 554.3,-131.8 564.3,-135.3 564.3,-128.3"/>
</g>
</g>
</svg>
