<?xml version="1.0" encoding="UTF-8" standalone="no"?>
<!DOCTYPE svg PUBLIC "-//W3C//DTD SVG 1.1//EN"
 "http://www.w3.org/Graphics/SVG/1.1/DTD/svg11.dtd">
<!-- Generated by graphviz version 5.0.0 (20220707.1540)
 -->
<!-- Title: dependencies Pages: 1 -->
<svg width="496pt" height="247pt"
 viewBox="0.00 0.00 496.00 246.80" xmlns="http://www.w3.org/2000/svg" xmlns:xlink="http://www.w3.org/1999/xlink">
<g id="graph0" class="graph" transform="scale(1 1) rotate(0) translate(4 242.8)">
<title>dependencies</title>
<polygon fill="white" stroke="transparent" points="-4,4 -4,-242.8 492,-242.8 492,4 -4,4"/>
<text text-anchor="middle" x="244" y="-8.2" font-family="sans-serif" font-size="14.00">dependencies</text>
<g id="clust1" class="cluster">
<title>cluster_PortfolioModule</title>
<polygon fill="none" stroke="black" stroke-dasharray="1,5" points="8,-32.8 8,-230.8 480,-230.8 480,-32.8 8,-32.8"/>
</g>
<g id="clust4" class="cluster">
<title>cluster_PortfolioModule_imports</title>
<polygon fill="none" stroke="black" points="172,-40.8 172,-92.8 472,-92.8 472,-40.8 172,-40.8"/>
</g>
<g id="clust5" class="cluster">
<title>cluster_PortfolioModule_exports</title>
<polygon fill="none" stroke="black" points="182,-170.8 182,-222.8 332,-222.8 332,-170.8 182,-170.8"/>
</g>
<g id="clust2" class="cluster">
<title>cluster_PortfolioModule_declarations</title>
<polygon fill="none" stroke="black" points="16,-40.8 16,-92.8 164,-92.8 164,-40.8 16,-40.8"/>
</g>
<!-- PortfolioComponent -->
<g id="node1" class="node">
<title>PortfolioComponent</title>
<polygon fill="#ffffb3" stroke="black" points="155.61,-84.8 24.39,-84.8 24.39,-48.8 155.61,-48.8 155.61,-84.8"/>
<text text-anchor="middle" x="90" y="-62.6" font-family="Times,serif" font-size="14.00">PortfolioComponent</text>
</g>
<!-- PortfolioModule -->
<g id="node2" class="node">
<title>PortfolioModule</title>
<polygon fill="#8dd3c7" stroke="black" points="311.83,-149.8 308.83,-153.8 287.83,-153.8 284.83,-149.8 202.17,-149.8 202.17,-113.8 311.83,-113.8 311.83,-149.8"/>
<text text-anchor="middle" x="257" y="-127.6" font-family="Times,serif" font-size="14.00">PortfolioModule</text>
</g>
<!-- PortfolioComponent&#45;&gt;PortfolioModule -->
<g id="edge1" class="edge">
<title>PortfolioComponent&#45;&gt;PortfolioModule</title>
<path fill="none" stroke="black" d="M90,-84.91C90,-104.14 90,-131.8 90,-131.8 90,-131.8 192.32,-131.8 192.32,-131.8"/>
<polygon fill="black" stroke="black" points="192.32,-135.3 202.32,-131.8 192.32,-128.3 192.32,-135.3"/>
</g>
<!-- PortfolioComponent  -->
<g id="node5" class="node">
<title>PortfolioComponent </title>
<polygon fill="#fb8072" stroke="black" points="324.11,-214.8 189.89,-214.8 189.89,-178.8 324.11,-178.8 324.11,-214.8"/>
<text text-anchor="middle" x="257" y="-192.6" font-family="Times,serif" font-size="14.00">PortfolioComponent </text>
</g>
<!-- PortfolioModule&#45;&gt;PortfolioComponent  -->
<g id="edge4" class="edge">
<title>PortfolioModule&#45;&gt;PortfolioComponent </title>
<path fill="none" stroke="black" stroke-dasharray="5,2" d="M257,-149.91C257,-149.91 257,-168.79 257,-168.79"/>
<polygon fill="black" stroke="black" points="253.5,-168.79 257,-178.79 260.5,-168.79 253.5,-168.79"/>
</g>
<!-- CommonModule -->
<g id="node3" class="node">
<title>CommonModule</title>
<polygon fill="#8dd3c7" stroke="black" points="463.67,-84.8 460.67,-88.8 439.67,-88.8 436.67,-84.8 352.33,-84.8 352.33,-48.8 463.67,-48.8 463.67,-84.8"/>
<text text-anchor="middle" x="408" y="-62.6" font-family="Times,serif" font-size="14.00">CommonModule</text>
</g>
<!-- CommonModule&#45;&gt;PortfolioModule -->
<g id="edge2" class="edge">
<title>CommonModule&#45;&gt;PortfolioModule</title>
<path fill="none" stroke="black" d="M408,-84.91C408,-104.14 408,-131.8 408,-131.8 408,-131.8 321.94,-131.8 321.94,-131.8"/>
<polygon fill="black" stroke="black" points="321.94,-128.3 311.94,-131.8 321.94,-135.3 321.94,-128.3"/>
</g>
<!-- PortfolioRoutingModule -->
<g id="node4" class="node">
<title>PortfolioRoutingModule</title>
<polygon fill="#8dd3c7" stroke="black" points="334.45,-84.8 331.45,-88.8 310.45,-88.8 307.45,-84.8 179.55,-84.8 179.55,-48.8 334.45,-48.8 334.45,-84.8"/>
<text text-anchor="middle" x="257" y="-62.6" font-family="Times,serif" font-size="14.00">PortfolioRoutingModule</text>
</g>
<!-- PortfolioRoutingModule&#45;&gt;PortfolioModule -->
<g id="edge3" class="edge">
<title>PortfolioRoutingModule&#45;&gt;PortfolioModule</title>
<path fill="none" stroke="black" d="M257,-84.91C257,-84.91 257,-103.79 257,-103.79"/>
<polygon fill="black" stroke="black" points="253.5,-103.79 257,-113.79 260.5,-103.79 253.5,-103.79"/>
</g>
</g>
</svg>
