<?xml version="1.0" encoding="UTF-8" standalone="no"?>
<!DOCTYPE svg PUBLIC "-//W3C//DTD SVG 1.1//EN"
 "http://www.w3.org/Graphics/SVG/1.1/DTD/svg11.dtd">
<!-- Generated by graphviz version 5.0.0 (20220707.1540)
 -->
<!-- Title: dependencies Pages: 1 -->
<svg width="444pt" height="247pt"
 viewBox="0.00 0.00 444.00 246.80" xmlns="http://www.w3.org/2000/svg" xmlns:xlink="http://www.w3.org/1999/xlink">
<g id="graph0" class="graph" transform="scale(1 1) rotate(0) translate(4 242.8)">
<title>dependencies</title>
<polygon fill="white" stroke="transparent" points="-4,4 -4,-242.8 440,-242.8 440,4 -4,4"/>
<text text-anchor="middle" x="218" y="-8.2" font-family="sans-serif" font-size="14.00">dependencies</text>
<g id="clust1" class="cluster">
<title>cluster_PostModule</title>
<polygon fill="none" stroke="black" stroke-dasharray="1,5" points="8,-32.8 8,-230.8 428,-230.8 428,-32.8 8,-32.8"/>
</g>
<g id="clust4" class="cluster">
<title>cluster_PostModule_imports</title>
<polygon fill="none" stroke="black" points="146,-40.8 146,-92.8 420,-92.8 420,-40.8 146,-40.8"/>
</g>
<g id="clust2" class="cluster">
<title>cluster_PostModule_declarations</title>
<polygon fill="none" stroke="black" points="16,-40.8 16,-92.8 138,-92.8 138,-40.8 16,-40.8"/>
</g>
<g id="clust5" class="cluster">
<title>cluster_PostModule_exports</title>
<polygon fill="none" stroke="black" points="156,-170.8 156,-222.8 280,-222.8 280,-170.8 156,-170.8"/>
</g>
<!-- PostComponent -->
<g id="node1" class="node">
<title>PostComponent</title>
<polygon fill="#ffffb3" stroke="black" points="129.96,-84.8 24.04,-84.8 24.04,-48.8 129.96,-48.8 129.96,-84.8"/>
<text text-anchor="middle" x="77" y="-62.6" font-family="Times,serif" font-size="14.00">PostComponent</text>
</g>
<!-- PostModule -->
<g id="node2" class="node">
<title>PostModule</title>
<polygon fill="#8dd3c7" stroke="black" points="259.68,-149.8 256.68,-153.8 235.68,-153.8 232.68,-149.8 176.32,-149.8 176.32,-113.8 259.68,-113.8 259.68,-149.8"/>
<text text-anchor="middle" x="218" y="-127.6" font-family="Times,serif" font-size="14.00">PostModule</text>
</g>
<!-- PostComponent&#45;&gt;PostModule -->
<g id="edge1" class="edge">
<title>PostComponent&#45;&gt;PostModule</title>
<path fill="none" stroke="black" d="M77,-84.91C77,-104.14 77,-131.8 77,-131.8 77,-131.8 166.08,-131.8 166.08,-131.8"/>
<polygon fill="black" stroke="black" points="166.08,-135.3 176.08,-131.8 166.08,-128.3 166.08,-135.3"/>
</g>
<!-- PostComponent  -->
<g id="node5" class="node">
<title>PostComponent </title>
<polygon fill="#fb8072" stroke="black" points="272.46,-214.8 163.54,-214.8 163.54,-178.8 272.46,-178.8 272.46,-214.8"/>
<text text-anchor="middle" x="218" y="-192.6" font-family="Times,serif" font-size="14.00">PostComponent </text>
</g>
<!-- PostModule&#45;&gt;PostComponent  -->
<g id="edge4" class="edge">
<title>PostModule&#45;&gt;PostComponent </title>
<path fill="none" stroke="black" stroke-dasharray="5,2" d="M218,-149.91C218,-149.91 218,-168.79 218,-168.79"/>
<polygon fill="black" stroke="black" points="214.5,-168.79 218,-178.79 221.5,-168.79 214.5,-168.79"/>
</g>
<!-- CommonModule -->
<g id="node3" class="node">
<title>CommonModule</title>
<polygon fill="#8dd3c7" stroke="black" points="411.67,-84.8 408.67,-88.8 387.67,-88.8 384.67,-84.8 300.33,-84.8 300.33,-48.8 411.67,-48.8 411.67,-84.8"/>
<text text-anchor="middle" x="356" y="-62.6" font-family="Times,serif" font-size="14.00">CommonModule</text>
</g>
<!-- CommonModule&#45;&gt;PostModule -->
<g id="edge2" class="edge">
<title>CommonModule&#45;&gt;PostModule</title>
<path fill="none" stroke="black" d="M356,-84.91C356,-104.14 356,-131.8 356,-131.8 356,-131.8 269.78,-131.8 269.78,-131.8"/>
<polygon fill="black" stroke="black" points="269.78,-128.3 259.78,-131.8 269.78,-135.3 269.78,-128.3"/>
</g>
<!-- PostRoutingModule -->
<g id="node4" class="node">
<title>PostRoutingModule</title>
<polygon fill="#8dd3c7" stroke="black" points="282.29,-84.8 279.29,-88.8 258.29,-88.8 255.29,-84.8 153.71,-84.8 153.71,-48.8 282.29,-48.8 282.29,-84.8"/>
<text text-anchor="middle" x="218" y="-62.6" font-family="Times,serif" font-size="14.00">PostRoutingModule</text>
</g>
<!-- PostRoutingModule&#45;&gt;PostModule -->
<g id="edge3" class="edge">
<title>PostRoutingModule&#45;&gt;PostModule</title>
<path fill="none" stroke="black" d="M218,-84.91C218,-84.91 218,-103.79 218,-103.79"/>
<polygon fill="black" stroke="black" points="214.5,-103.79 218,-113.79 221.5,-103.79 214.5,-103.79"/>
</g>
</g>
</svg>
